<svg width="26" height="26" viewBox="0 0 26 26" fill="none" xmlns="http://www.w3.org/2000/svg">
<path d="M5.41602 4.3335H6.49935C7.3613 4.3335 8.18795 4.67591 8.79745 5.2854C9.40694 5.89489 9.74935 6.72154 9.74935 7.5835C9.74935 6.72154 10.0918 5.89489 10.7013 5.2854C11.3107 4.67591 12.1374 4.3335 12.9993 4.3335H14.0827" stroke="#1A56DB" stroke-width="2.25" stroke-linecap="round" stroke-linejoin="round"/>
<path d="M14.0827 21.6665H12.9993C12.1374 21.6665 11.3107 21.3241 10.7013 20.7146C10.0918 20.1051 9.74935 19.2785 9.74935 18.4165C9.74935 19.2785 9.40694 20.1051 8.79745 20.7146C8.18795 21.3241 7.3613 21.6665 6.49935 21.6665H5.41602" stroke="#1A56DB" stroke-width="2.25" stroke-linecap="round" stroke-linejoin="round"/>
<path d="M4.41602 17.3332H3.33268C2.75805 17.3332 2.20695 17.1049 1.80062 16.6986C1.39429 16.2922 1.16602 15.7411 1.16602 15.1665V10.8332C1.16602 10.2585 1.39429 9.70744 1.80062 9.30111C2.20695 8.89478 2.75805 8.6665 3.33268 8.6665H4.41602" stroke="#2A3240" stroke-width="2.25" stroke-linecap="round" stroke-linejoin="round"/>
<path d="M15.084 8.6665H22.6673C23.242 8.6665 23.7931 8.89478 24.1994 9.30111C24.6057 9.70744 24.834 10.2585 24.834 10.8332V15.1665C24.834 15.7411 24.6057 16.2922 24.1994 16.6986C23.7931 17.1049 23.242 17.3332 22.6673 17.3332H15.084" stroke="#2A3240" stroke-width="2.25" stroke-linecap="round" stroke-linejoin="round"/>
<path d="M9.75 7.5835V18.4168" stroke="#1A56DB" stroke-width="2.25" stroke-linecap="round" stroke-linejoin="round"/>
</svg>
