<svg width="101" height="34" viewBox="0 0 101 34" fill="none" xmlns="http://www.w3.org/2000/svg">
<path d="M39.7045 32.9091C38.2273 32.9091 36.9583 32.7083 35.8977 32.3068C34.8371 31.9129 33.9848 31.3826 33.3409 30.7159C32.697 30.0492 32.25 29.3106 32 28.5L35.7045 27.6023C35.8712 27.9432 36.1136 28.2803 36.4318 28.6136C36.75 28.9545 37.178 29.2348 37.7159 29.4545C38.2614 29.6818 38.947 29.7955 39.7727 29.7955C40.9394 29.7955 41.9053 29.5114 42.6705 28.9432C43.4356 28.3826 43.8182 27.4583 43.8182 26.1705V22.8636H43.6136C43.4015 23.2879 43.0909 23.7235 42.6818 24.1705C42.2803 24.6174 41.7462 24.9924 41.0795 25.2955C40.4205 25.5985 39.5909 25.75 38.5909 25.75C37.25 25.75 36.0341 25.4356 34.9432 24.8068C33.8598 24.1705 32.9962 23.2235 32.3523 21.9659C31.7159 20.7008 31.3977 19.1174 31.3977 17.2159C31.3977 15.2992 31.7159 13.6818 32.3523 12.3636C32.9962 11.0379 33.8636 10.0341 34.9545 9.35227C36.0455 8.66288 37.2614 8.31818 38.6023 8.31818C39.625 8.31818 40.4659 8.49242 41.125 8.84091C41.7917 9.18182 42.322 9.5947 42.7159 10.0795C43.1098 10.5568 43.4091 11.0076 43.6136 11.4318H43.8409V8.54545H47.8977V26.2841C47.8977 27.7765 47.5417 29.0114 46.8295 29.9886C46.1174 30.9659 45.1439 31.697 43.9091 32.1818C42.6742 32.6667 41.2727 32.9091 39.7045 32.9091ZM39.7386 22.5227C40.6098 22.5227 41.3523 22.3106 41.9659 21.8864C42.5795 21.4621 43.0455 20.8523 43.3636 20.0568C43.6818 19.2614 43.8409 18.3068 43.8409 17.1932C43.8409 16.0947 43.6818 15.1326 43.3636 14.3068C43.053 13.4811 42.5909 12.8409 41.9773 12.3864C41.3712 11.9242 40.625 11.6932 39.7386 11.6932C38.822 11.6932 38.0568 11.9318 37.4432 12.4091C36.8295 12.8864 36.3674 13.5417 36.0568 14.375C35.7462 15.2008 35.5909 16.1402 35.5909 17.1932C35.5909 18.2614 35.7462 19.197 36.0568 20C36.375 20.7955 36.8409 21.4167 37.4545 21.8636C38.0758 22.303 38.8371 22.5227 39.7386 22.5227ZM52.1136 26V8.54545H56.1023V11.4545H56.2841C56.6023 10.447 57.1477 9.67045 57.9205 9.125C58.7008 8.57197 59.5909 8.29545 60.5909 8.29545C60.8182 8.29545 61.072 8.30682 61.3523 8.32954C61.6402 8.3447 61.8788 8.37121 62.0682 8.40909V12.1932C61.8939 12.1326 61.6174 12.0795 61.2386 12.0341C60.8674 11.9811 60.5076 11.9545 60.1591 11.9545C59.4091 11.9545 58.7348 12.1174 58.1364 12.4432C57.5455 12.7614 57.0795 13.2045 56.7386 13.7727C56.3977 14.3409 56.2273 14.9962 56.2273 15.7386V26H52.1136ZM64.8011 26V8.54545H68.9148V26H64.8011ZM66.8693 6.06818C66.2178 6.06818 65.6572 5.85227 65.1875 5.42045C64.7178 4.98106 64.483 4.45454 64.483 3.84091C64.483 3.2197 64.7178 2.69318 65.1875 2.26136C65.6572 1.82197 66.2178 1.60227 66.8693 1.60227C67.5284 1.60227 68.089 1.82197 68.5511 2.26136C69.0208 2.69318 69.2557 3.2197 69.2557 3.84091C69.2557 4.45454 69.0208 4.98106 68.5511 5.42045C68.089 5.85227 67.5284 6.06818 66.8693 6.06818ZM79.6222 26.3068C78.2509 26.3068 77.0237 25.9545 75.9403 25.25C74.857 24.5455 74.0009 23.5227 73.3722 22.1818C72.7434 20.8409 72.429 19.2121 72.429 17.2955C72.429 15.3561 72.7472 13.7197 73.3835 12.3864C74.0275 11.0455 74.8949 10.0341 75.9858 9.35227C77.0767 8.66288 78.2926 8.31818 79.6335 8.31818C80.6563 8.31818 81.4972 8.49242 82.1562 8.84091C82.8153 9.18182 83.3381 9.5947 83.7244 10.0795C84.1108 10.5568 84.41 11.0076 84.6222 11.4318H84.7926V2.72727H88.9176V26H84.8722V23.25H84.6222C84.41 23.6742 84.1032 24.125 83.7017 24.6023C83.3002 25.072 82.7699 25.4735 82.1108 25.8068C81.4517 26.1402 80.6222 26.3068 79.6222 26.3068ZM80.7699 22.9318C81.6411 22.9318 82.3835 22.697 82.9972 22.2273C83.6108 21.75 84.0767 21.0871 84.3949 20.2386C84.7131 19.3902 84.8722 18.4015 84.8722 17.2727C84.8722 16.1439 84.7131 15.1629 84.3949 14.3295C84.0843 13.4962 83.6222 12.8485 83.0085 12.3864C82.4025 11.9242 81.6563 11.6932 80.7699 11.6932C79.8532 11.6932 79.0881 11.9318 78.4744 12.4091C77.8608 12.8864 77.3987 13.5455 77.0881 14.3864C76.7775 15.2273 76.6222 16.1894 76.6222 17.2727C76.6222 18.3636 76.7775 19.3371 77.0881 20.1932C77.4063 21.0417 77.8722 21.7121 78.4858 22.2045C79.107 22.6894 79.8684 22.9318 80.7699 22.9318ZM95.8352 26.25C95.1458 26.25 94.5549 26.0076 94.0625 25.5227C93.5701 25.0379 93.3277 24.447 93.3352 23.75C93.3277 23.0682 93.5701 22.4848 94.0625 22C94.5549 21.5152 95.1458 21.2727 95.8352 21.2727C96.5019 21.2727 97.0814 21.5152 97.5739 22C98.0739 22.4848 98.3277 23.0682 98.3352 23.75C98.3277 24.2121 98.2064 24.6326 97.9716 25.0114C97.7443 25.3902 97.4413 25.6932 97.0625 25.9205C96.6913 26.1402 96.2822 26.25 95.8352 26.25Z" fill="black"/>
<path d="M9 9H4C3.44772 9 3 9.44772 3 10V15C3 15.5523 3.44772 16 4 16H9C9.55228 16 10 15.5523 10 15V10C10 9.44772 9.55228 9 9 9Z" stroke="#99B9E2" stroke-width="2" stroke-linecap="round" stroke-linejoin="round"/>
<path d="M20 9H15C14.4477 9 14 9.44772 14 10V15C14 15.5523 14.4477 16 15 16H20C20.5523 16 21 15.5523 21 15V10C21 9.44772 20.5523 9 20 9Z" stroke="#99B9E2" stroke-width="2" stroke-linecap="round" stroke-linejoin="round"/>
<path d="M20 20H15C14.4477 20 14 20.4477 14 21V26C14 26.5523 14.4477 27 15 27H20C20.5523 27 21 26.5523 21 26V21C21 20.4477 20.5523 20 20 20Z" stroke="#99B9E2" stroke-width="2" stroke-linecap="round" stroke-linejoin="round"/>
<path d="M9 20H4C3.44772 20 3 20.4477 3 21V26C3 26.5523 3.44772 27 4 27H9C9.55228 27 10 26.5523 10 26V21C10 20.4477 9.55228 20 9 20Z" stroke="#99B9E2" stroke-width="2" stroke-linecap="round" stroke-linejoin="round"/>
</svg>
