<svg width="104" height="34" viewBox="0 0 104 34" fill="none" xmlns="http://www.w3.org/2000/svg">
<path d="M42.7045 32.9091C41.2273 32.9091 39.9583 32.7083 38.8977 32.3068C37.8371 31.9129 36.9848 31.3826 36.3409 30.7159C35.697 30.0492 35.25 29.3106 35 28.5L38.7045 27.6023C38.8712 27.9432 39.1136 28.2803 39.4318 28.6136C39.75 28.9545 40.178 29.2348 40.7159 29.4545C41.2614 29.6818 41.947 29.7955 42.7727 29.7955C43.9394 29.7955 44.9053 29.5114 45.6705 28.9432C46.4356 28.3826 46.8182 27.4583 46.8182 26.1705V22.8636H46.6136C46.4015 23.2879 46.0909 23.7235 45.6818 24.1705C45.2803 24.6174 44.7462 24.9924 44.0795 25.2955C43.4205 25.5985 42.5909 25.75 41.5909 25.75C40.25 25.75 39.0341 25.4356 37.9432 24.8068C36.8598 24.1705 35.9962 23.2235 35.3523 21.9659C34.7159 20.7008 34.3977 19.1174 34.3977 17.2159C34.3977 15.2992 34.7159 13.6818 35.3523 12.3636C35.9962 11.0379 36.8636 10.0341 37.9545 9.35227C39.0455 8.66288 40.2614 8.31818 41.6023 8.31818C42.625 8.31818 43.4659 8.49242 44.125 8.84091C44.7917 9.18182 45.322 9.5947 45.7159 10.0795C46.1098 10.5568 46.4091 11.0076 46.6136 11.4318H46.8409V8.54545H50.8977V26.2841C50.8977 27.7765 50.5417 29.0114 49.8295 29.9886C49.1174 30.9659 48.1439 31.697 46.9091 32.1818C45.6742 32.6667 44.2727 32.9091 42.7045 32.9091ZM42.7386 22.5227C43.6098 22.5227 44.3523 22.3106 44.9659 21.8864C45.5795 21.4621 46.0455 20.8523 46.3636 20.0568C46.6818 19.2614 46.8409 18.3068 46.8409 17.1932C46.8409 16.0947 46.6818 15.1326 46.3636 14.3068C46.053 13.4811 45.5909 12.8409 44.9773 12.3864C44.3712 11.9242 43.625 11.6932 42.7386 11.6932C41.822 11.6932 41.0568 11.9318 40.4432 12.4091C39.8295 12.8864 39.3674 13.5417 39.0568 14.375C38.7462 15.2008 38.5909 16.1402 38.5909 17.1932C38.5909 18.2614 38.7462 19.197 39.0568 20C39.375 20.7955 39.8409 21.4167 40.4545 21.8636C41.0758 22.303 41.8371 22.5227 42.7386 22.5227ZM55.1136 26V8.54545H59.1023V11.4545H59.2841C59.6023 10.447 60.1477 9.67045 60.9205 9.125C61.7008 8.57197 62.5909 8.29545 63.5909 8.29545C63.8182 8.29545 64.072 8.30682 64.3523 8.32954C64.6402 8.3447 64.8788 8.37121 65.0682 8.40909V12.1932C64.8939 12.1326 64.6174 12.0795 64.2386 12.0341C63.8674 11.9811 63.5076 11.9545 63.1591 11.9545C62.4091 11.9545 61.7348 12.1174 61.1364 12.4432C60.5455 12.7614 60.0795 13.2045 59.7386 13.7727C59.3977 14.3409 59.2273 14.9962 59.2273 15.7386V26H55.1136ZM67.8011 26V8.54545H71.9148V26H67.8011ZM69.8693 6.06818C69.2178 6.06818 68.6572 5.85227 68.1875 5.42045C67.7178 4.98106 67.483 4.45454 67.483 3.84091C67.483 3.2197 67.7178 2.69318 68.1875 2.26136C68.6572 1.82197 69.2178 1.60227 69.8693 1.60227C70.5284 1.60227 71.089 1.82197 71.5511 2.26136C72.0208 2.69318 72.2557 3.2197 72.2557 3.84091C72.2557 4.45454 72.0208 4.98106 71.5511 5.42045C71.089 5.85227 70.5284 6.06818 69.8693 6.06818ZM82.6222 26.3068C81.2509 26.3068 80.0237 25.9545 78.9403 25.25C77.857 24.5455 77.0009 23.5227 76.3722 22.1818C75.7434 20.8409 75.429 19.2121 75.429 17.2955C75.429 15.3561 75.7472 13.7197 76.3835 12.3864C77.0275 11.0455 77.8949 10.0341 78.9858 9.35227C80.0767 8.66288 81.2926 8.31818 82.6335 8.31818C83.6563 8.31818 84.4972 8.49242 85.1562 8.84091C85.8153 9.18182 86.3381 9.5947 86.7244 10.0795C87.1108 10.5568 87.41 11.0076 87.6222 11.4318H87.7926V2.72727H91.9176V26H87.8722V23.25H87.6222C87.41 23.6742 87.1032 24.125 86.7017 24.6023C86.3002 25.072 85.7699 25.4735 85.1108 25.8068C84.4517 26.1402 83.6222 26.3068 82.6222 26.3068ZM83.7699 22.9318C84.6411 22.9318 85.3835 22.697 85.9972 22.2273C86.6108 21.75 87.0767 21.0871 87.3949 20.2386C87.7131 19.3902 87.8722 18.4015 87.8722 17.2727C87.8722 16.1439 87.7131 15.1629 87.3949 14.3295C87.0843 13.4962 86.6222 12.8485 86.0085 12.3864C85.4025 11.9242 84.6563 11.6932 83.7699 11.6932C82.8532 11.6932 82.0881 11.9318 81.4744 12.4091C80.8608 12.8864 80.3987 13.5455 80.0881 14.3864C79.7775 15.2273 79.6222 16.1894 79.6222 17.2727C79.6222 18.3636 79.7775 19.3371 80.0881 20.1932C80.4063 21.0417 80.8722 21.7121 81.4858 22.2045C82.107 22.6894 82.8684 22.9318 83.7699 22.9318ZM98.8352 26.25C98.1458 26.25 97.5549 26.0076 97.0625 25.5227C96.5701 25.0379 96.3277 24.447 96.3352 23.75C96.3277 23.0682 96.5701 22.4848 97.0625 22C97.5549 21.5152 98.1458 21.2727 98.8352 21.2727C99.5019 21.2727 100.081 21.5152 100.574 22C101.074 22.4848 101.328 23.0682 101.335 23.75C101.328 24.2121 101.206 24.6326 100.972 25.0114C100.744 25.3902 100.441 25.6932 100.062 25.9205C99.6913 26.1402 99.2822 26.25 98.8352 26.25Z" fill="black"/>
<path d="M12 8H7C6.44772 8 6 8.44772 6 9V16C6 16.5523 6.44772 17 7 17H12C12.5523 17 13 16.5523 13 16V9C13 8.44772 12.5523 8 12 8Z" fill="black" stroke="black" stroke-width="2" stroke-linecap="round" stroke-linejoin="round"/>
<path d="M23 8H18C17.4477 8 17 8.44772 17 9V12C17 12.5523 17.4477 13 18 13H23C23.5523 13 24 12.5523 24 12V9C24 8.44772 23.5523 8 23 8Z" fill="black" stroke="black" stroke-width="2" stroke-linecap="round" stroke-linejoin="round"/>
<path d="M23 17H18C17.4477 17 17 17.4477 17 18V25C17 25.5523 17.4477 26 18 26H23C23.5523 26 24 25.5523 24 25V18C24 17.4477 23.5523 17 23 17Z" fill="#1A56DB" stroke="#1A56DB" stroke-width="2" stroke-linecap="round" stroke-linejoin="round"/>
<path d="M12 21H7C6.44772 21 6 21.4477 6 22V25C6 25.5523 6.44772 26 7 26H12C12.5523 26 13 25.5523 13 25V22C13 21.4477 12.5523 21 12 21Z" fill="black" stroke="black" stroke-width="2" stroke-linecap="round" stroke-linejoin="round"/>
</svg>
