<svg width="125" height="34" viewBox="0 0 125 34" fill="none" xmlns="http://www.w3.org/2000/svg">
<path d="M45.7045 32.9091C44.2273 32.9091 42.9583 32.7083 41.8977 32.3068C40.8371 31.9129 39.9848 31.3826 39.3409 30.7159C38.697 30.0492 38.25 29.3106 38 28.5L41.7045 27.6023C41.8712 27.9432 42.1136 28.2803 42.4318 28.6136C42.75 28.9545 43.178 29.2348 43.7159 29.4545C44.2614 29.6818 44.947 29.7955 45.7727 29.7955C46.9394 29.7955 47.9053 29.5114 48.6705 28.9432C49.4356 28.3826 49.8182 27.4583 49.8182 26.1705V22.8636H49.6136C49.4015 23.2879 49.0909 23.7235 48.6818 24.1705C48.2803 24.6174 47.7462 24.9924 47.0795 25.2955C46.4205 25.5985 45.5909 25.75 44.5909 25.75C43.25 25.75 42.0341 25.4356 40.9432 24.8068C39.8598 24.1705 38.9962 23.2235 38.3523 21.9659C37.7159 20.7008 37.3977 19.1174 37.3977 17.2159C37.3977 15.2992 37.7159 13.6818 38.3523 12.3636C38.9962 11.0379 39.8636 10.0341 40.9545 9.35227C42.0455 8.66288 43.2614 8.31818 44.6023 8.31818C45.625 8.31818 46.4659 8.49242 47.125 8.84091C47.7917 9.18182 48.322 9.5947 48.7159 10.0795C49.1098 10.5568 49.4091 11.0076 49.6136 11.4318H49.8409V8.54545H53.8977V26.2841C53.8977 27.7765 53.5417 29.0114 52.8295 29.9886C52.1174 30.9659 51.1439 31.697 49.9091 32.1818C48.6742 32.6667 47.2727 32.9091 45.7045 32.9091ZM45.7386 22.5227C46.6098 22.5227 47.3523 22.3106 47.9659 21.8864C48.5795 21.4621 49.0455 20.8523 49.3636 20.0568C49.6818 19.2614 49.8409 18.3068 49.8409 17.1932C49.8409 16.0947 49.6818 15.1326 49.3636 14.3068C49.053 13.4811 48.5909 12.8409 47.9773 12.3864C47.3712 11.9242 46.625 11.6932 45.7386 11.6932C44.822 11.6932 44.0568 11.9318 43.4432 12.4091C42.8295 12.8864 42.3674 13.5417 42.0568 14.375C41.7462 15.2008 41.5909 16.1402 41.5909 17.1932C41.5909 18.2614 41.7462 19.197 42.0568 20C42.375 20.7955 42.8409 21.4167 43.4545 21.8636C44.0758 22.303 44.8371 22.5227 45.7386 22.5227ZM58.1136 26V8.54545H62.1023V11.4545H62.2841C62.6023 10.447 63.1477 9.67045 63.9205 9.125C64.7008 8.57197 65.5909 8.29545 66.5909 8.29545C66.8182 8.29545 67.072 8.30682 67.3523 8.32954C67.6402 8.3447 67.8788 8.37121 68.0682 8.40909V12.1932C67.8939 12.1326 67.6174 12.0795 67.2386 12.0341C66.8674 11.9811 66.5076 11.9545 66.1591 11.9545C65.4091 11.9545 64.7348 12.1174 64.1364 12.4432C63.5455 12.7614 63.0795 13.2045 62.7386 13.7727C62.3977 14.3409 62.2273 14.9962 62.2273 15.7386V26H58.1136ZM70.8011 26V8.54545H74.9148V26H70.8011ZM72.8693 6.06818C72.2178 6.06818 71.6572 5.85227 71.1875 5.42045C70.7178 4.98106 70.483 4.45454 70.483 3.84091C70.483 3.2197 70.7178 2.69318 71.1875 2.26136C71.6572 1.82197 72.2178 1.60227 72.8693 1.60227C73.5284 1.60227 74.089 1.82197 74.5511 2.26136C75.0208 2.69318 75.2557 3.2197 75.2557 3.84091C75.2557 4.45454 75.0208 4.98106 74.5511 5.42045C74.089 5.85227 73.5284 6.06818 72.8693 6.06818ZM85.6222 26.3068C84.2509 26.3068 83.0237 25.9545 81.9403 25.25C80.857 24.5455 80.0009 23.5227 79.3722 22.1818C78.7434 20.8409 78.429 19.2121 78.429 17.2955C78.429 15.3561 78.7472 13.7197 79.3835 12.3864C80.0275 11.0455 80.8949 10.0341 81.9858 9.35227C83.0767 8.66288 84.2926 8.31818 85.6335 8.31818C86.6563 8.31818 87.4972 8.49242 88.1562 8.84091C88.8153 9.18182 89.3381 9.5947 89.7244 10.0795C90.1108 10.5568 90.41 11.0076 90.6222 11.4318H90.7926V2.72727H94.9176V26H90.8722V23.25H90.6222C90.41 23.6742 90.1032 24.125 89.7017 24.6023C89.3002 25.072 88.7699 25.4735 88.1108 25.8068C87.4517 26.1402 86.6222 26.3068 85.6222 26.3068ZM86.7699 22.9318C87.6411 22.9318 88.3835 22.697 88.9972 22.2273C89.6108 21.75 90.0767 21.0871 90.3949 20.2386C90.7131 19.3902 90.8722 18.4015 90.8722 17.2727C90.8722 16.1439 90.7131 15.1629 90.3949 14.3295C90.0843 13.4962 89.6222 12.8485 89.0085 12.3864C88.4025 11.9242 87.6563 11.6932 86.7699 11.6932C85.8532 11.6932 85.0881 11.9318 84.4744 12.4091C83.8608 12.8864 83.3987 13.5455 83.0881 14.3864C82.7775 15.2273 82.6222 16.1894 82.6222 17.2727C82.6222 18.3636 82.7775 19.3371 83.0881 20.1932C83.4063 21.0417 83.8722 21.7121 84.4858 22.2045C85.107 22.6894 85.8684 22.9318 86.7699 22.9318ZM113.097 13.1591L109.347 13.5682C109.241 13.1894 109.055 12.8333 108.79 12.5C108.532 12.1667 108.184 11.8977 107.744 11.6932C107.305 11.4886 106.767 11.3864 106.131 11.3864C105.275 11.3864 104.555 11.572 103.972 11.9432C103.396 12.3144 103.112 12.7955 103.119 13.3864C103.112 13.8939 103.297 14.3068 103.676 14.625C104.063 14.9432 104.699 15.2045 105.585 15.4091L108.562 16.0455C110.214 16.4015 111.441 16.9659 112.244 17.7386C113.055 18.5114 113.464 19.5227 113.472 20.7727C113.464 21.8712 113.142 22.8409 112.506 23.6818C111.877 24.5152 111.002 25.1667 109.881 25.6364C108.759 26.1061 107.472 26.3409 106.017 26.3409C103.881 26.3409 102.161 25.8939 100.858 25C99.5549 24.0985 98.7784 22.8447 98.5284 21.2386L102.54 20.8523C102.722 21.6402 103.108 22.2348 103.699 22.6364C104.29 23.0379 105.059 23.2386 106.006 23.2386C106.983 23.2386 107.767 23.0379 108.358 22.6364C108.956 22.2348 109.256 21.7386 109.256 21.1477C109.256 20.6477 109.063 20.2348 108.676 19.9091C108.297 19.5833 107.706 19.3333 106.903 19.1591L103.926 18.5341C102.252 18.1856 101.013 17.5985 100.21 16.7727C99.4072 15.9394 99.0095 14.8864 99.017 13.6136C99.0095 12.5379 99.3011 11.6061 99.892 10.8182C100.491 10.0227 101.32 9.40909 102.381 8.97727C103.449 8.53788 104.68 8.31818 106.074 8.31818C108.119 8.31818 109.729 8.75379 110.903 9.625C112.085 10.4962 112.816 11.6742 113.097 13.1591ZM119.398 26.25C118.708 26.25 118.117 26.0076 117.625 25.5227C117.133 25.0379 116.89 24.447 116.898 23.75C116.89 23.0682 117.133 22.4848 117.625 22C118.117 21.5152 118.708 21.2727 119.398 21.2727C120.064 21.2727 120.644 21.5152 121.136 22C121.636 22.4848 121.89 23.0682 121.898 23.75C121.89 24.2121 121.769 24.6326 121.534 25.0114C121.307 25.3902 121.004 25.6932 120.625 25.9205C120.254 26.1402 119.845 26.25 119.398 26.25Z" fill="black"/>
<path d="M12 8H7C6.44772 8 6 8.44772 6 9V16C6 16.5523 6.44772 17 7 17H12C12.5523 17 13 16.5523 13 16V9C13 8.44772 12.5523 8 12 8Z" fill="black" stroke="black" stroke-width="2" stroke-linecap="round" stroke-linejoin="round"/>
<path d="M23 8H18C17.4477 8 17 8.44772 17 9V12C17 12.5523 17.4477 13 18 13H23C23.5523 13 24 12.5523 24 12V9C24 8.44772 23.5523 8 23 8Z" fill="black" stroke="black" stroke-width="2" stroke-linecap="round" stroke-linejoin="round"/>
<path d="M23 17H18C17.4477 17 17 17.4477 17 18V25C17 25.5523 17.4477 26 18 26H23C23.5523 26 24 25.5523 24 25V18C24 17.4477 23.5523 17 23 17Z" fill="black" stroke="black" stroke-width="2" stroke-linecap="round" stroke-linejoin="round"/>
<path d="M12 21H7C6.44772 21 6 21.4477 6 22V25C6 25.5523 6.44772 26 7 26H12C12.5523 26 13 25.5523 13 25V22C13 21.4477 12.5523 21 12 21Z" fill="black" stroke="black" stroke-width="2" stroke-linecap="round" stroke-linejoin="round"/>
</svg>
