<svg width="106" height="34" viewBox="0 0 106 34" fill="none" xmlns="http://www.w3.org/2000/svg">
<path d="M37.472 18.128V17.616C37.472 15.952 37.8027 14.5333 38.464 13.36C39.1253 12.1653 40 11.2587 41.088 10.64C42.1973 10 43.4027 9.68 44.704 9.68C46.1547 9.68 47.2533 9.936 48 10.448C48.7467 10.96 49.2907 11.4933 49.632 12.048H50.208V10.128H54.176V28.816C54.176 29.904 53.856 30.768 53.216 31.408C52.576 32.0693 51.7227 32.4 50.656 32.4H40.032V28.88H49.248C49.8453 28.88 50.144 28.56 50.144 27.92V23.792H49.568C49.3547 24.1333 49.056 24.4853 48.672 24.848C48.288 25.1893 47.776 25.4773 47.136 25.712C46.496 25.9467 45.6853 26.064 44.704 26.064C43.4027 26.064 42.1973 25.7547 41.088 25.136C40 24.496 39.1253 23.5893 38.464 22.416C37.8027 21.2213 37.472 19.792 37.472 18.128ZM45.856 22.544C47.0933 22.544 48.128 22.1493 48.96 21.36C49.792 20.5707 50.208 19.4613 50.208 18.032V17.712C50.208 16.2613 49.792 15.152 48.96 14.384C48.1493 13.5947 47.1147 13.2 45.856 13.2C44.6187 13.2 43.584 13.5947 42.752 14.384C41.92 15.152 41.504 16.2613 41.504 17.712V18.032C41.504 19.4613 41.92 20.5707 42.752 21.36C43.584 22.1493 44.6187 22.544 45.856 22.544ZM58.6463 26V10.128H62.6143V11.92H63.1903C63.4249 11.28 63.8089 10.8107 64.3423 10.512C64.8969 10.2133 65.5369 10.064 66.2623 10.064H68.1823V13.648H66.1983C65.1743 13.648 64.3316 13.9253 63.6703 14.48C63.0089 15.0133 62.6783 15.8453 62.6783 16.976V26H58.6463ZM71.3338 26V10.128H75.3658V26H71.3338ZM73.3498 8.272C72.6244 8.272 72.0058 8.03733 71.4938 7.568C71.0031 7.09867 70.7578 6.48 70.7578 5.712C70.7578 4.944 71.0031 4.32533 71.4938 3.856C72.0058 3.38667 72.6244 3.152 73.3498 3.152C74.0964 3.152 74.7151 3.38667 75.2058 3.856C75.6964 4.32533 75.9418 4.944 75.9418 5.712C75.9418 6.48 75.6964 7.09867 75.2058 7.568C74.7151 8.03733 74.0964 8.272 73.3498 8.272ZM86.2338 26.448C84.9751 26.448 83.7911 26.1387 82.6818 25.52C81.5938 24.88 80.7191 23.952 80.0578 22.736C79.3964 21.52 79.0658 20.048 79.0658 18.32V17.808C79.0658 16.08 79.3964 14.608 80.0578 13.392C80.7191 12.176 81.5938 11.2587 82.6818 10.64C83.7698 10 84.9538 9.68 86.2338 9.68C87.1938 9.68 87.9938 9.79733 88.6338 10.032C89.2951 10.2453 89.8284 10.5227 90.2338 10.864C90.6391 11.2053 90.9484 11.568 91.1618 11.952H91.7378V3.6H95.7698V26H91.8018V24.08H91.2258C90.8631 24.6773 90.2978 25.2213 89.5298 25.712C88.7831 26.2027 87.6844 26.448 86.2338 26.448ZM87.4498 22.928C88.6871 22.928 89.7218 22.5333 90.5538 21.744C91.3858 20.9333 91.8018 19.76 91.8018 18.224V17.904C91.8018 16.368 91.3858 15.2053 90.5538 14.416C89.7431 13.6053 88.7084 13.2 87.4498 13.2C86.2124 13.2 85.1778 13.6053 84.3458 14.416C83.5138 15.2053 83.0978 16.368 83.0978 17.904V18.224C83.0978 19.76 83.5138 20.9333 84.3458 21.744C85.1778 22.5333 86.2124 22.928 87.4498 22.928ZM102.768 26.448C101.915 26.448 101.189 26.1707 100.592 25.616C100.016 25.04 99.728 24.304 99.728 23.408C99.728 22.512 100.016 21.7867 100.592 21.232C101.189 20.656 101.915 20.368 102.768 20.368C103.643 20.368 104.368 20.656 104.944 21.232C105.52 21.7867 105.808 22.512 105.808 23.408C105.808 24.304 105.52 25.04 104.944 25.616C104.368 26.1707 103.643 26.448 102.768 26.448Z" fill="#000E8F"/>
<path d="M12 8H7C6.44772 8 6 8.44772 6 9V16C6 16.5523 6.44772 17 7 17H12C12.5523 17 13 16.5523 13 16V9C13 8.44772 12.5523 8 12 8Z" fill="black" stroke="#121A42" stroke-width="2" stroke-linecap="round" stroke-linejoin="round"/>
<path d="M23 8H18C17.4477 8 17 8.44772 17 9V12C17 12.5523 17.4477 13 18 13H23C23.5523 13 24 12.5523 24 12V9C24 8.44772 23.5523 8 23 8Z" fill="black" stroke="#121A42" stroke-width="2" stroke-linecap="round" stroke-linejoin="round"/>
<path d="M23 17H18C17.4477 17 17 17.4477 17 18V25C17 25.5523 17.4477 26 18 26H23C23.5523 26 24 25.5523 24 25V18C24 17.4477 23.5523 17 23 17Z" fill="black" stroke="black" stroke-width="2" stroke-linecap="round" stroke-linejoin="round"/>
<path d="M12 21H7C6.44772 21 6 21.4477 6 22V25C6 25.5523 6.44772 26 7 26H12C12.5523 26 13 25.5523 13 25V22C13 21.4477 12.5523 21 12 21Z" fill="black" stroke="#121A42" stroke-width="2" stroke-linecap="round" stroke-linejoin="round"/>
</svg>
