<svg width="104" height="34" viewBox="0 0 104 34" fill="none" xmlns="http://www.w3.org/2000/svg">
<path d="M44.7045 32.9091C43.2273 32.9091 41.9583 32.7083 40.8977 32.3068C39.8371 31.9129 38.9848 31.3826 38.3409 30.7159C37.697 30.0492 37.25 29.3106 37 28.5L40.7045 27.6023C40.8712 27.9432 41.1136 28.2803 41.4318 28.6136C41.75 28.9545 42.178 29.2348 42.7159 29.4545C43.2614 29.6818 43.947 29.7955 44.7727 29.7955C45.9394 29.7955 46.9053 29.5114 47.6705 28.9432C48.4356 28.3826 48.8182 27.4583 48.8182 26.1705V22.8636H48.6136C48.4015 23.2879 48.0909 23.7235 47.6818 24.1705C47.2803 24.6174 46.7462 24.9924 46.0795 25.2955C45.4205 25.5985 44.5909 25.75 43.5909 25.75C42.25 25.75 41.0341 25.4356 39.9432 24.8068C38.8598 24.1705 37.9962 23.2235 37.3523 21.9659C36.7159 20.7008 36.3977 19.1174 36.3977 17.2159C36.3977 15.2992 36.7159 13.6818 37.3523 12.3636C37.9962 11.0379 38.8636 10.0341 39.9545 9.35227C41.0455 8.66288 42.2614 8.31818 43.6023 8.31818C44.625 8.31818 45.4659 8.49242 46.125 8.84091C46.7917 9.18182 47.322 9.5947 47.7159 10.0795C48.1098 10.5568 48.4091 11.0076 48.6136 11.4318H48.8409V8.54545H52.8977V26.2841C52.8977 27.7765 52.5417 29.0114 51.8295 29.9886C51.1174 30.9659 50.1439 31.697 48.9091 32.1818C47.6742 32.6667 46.2727 32.9091 44.7045 32.9091ZM44.7386 22.5227C45.6098 22.5227 46.3523 22.3106 46.9659 21.8864C47.5795 21.4621 48.0455 20.8523 48.3636 20.0568C48.6818 19.2614 48.8409 18.3068 48.8409 17.1932C48.8409 16.0947 48.6818 15.1326 48.3636 14.3068C48.053 13.4811 47.5909 12.8409 46.9773 12.3864C46.3712 11.9242 45.625 11.6932 44.7386 11.6932C43.822 11.6932 43.0568 11.9318 42.4432 12.4091C41.8295 12.8864 41.3674 13.5417 41.0568 14.375C40.7462 15.2008 40.5909 16.1402 40.5909 17.1932C40.5909 18.2614 40.7462 19.197 41.0568 20C41.375 20.7955 41.8409 21.4167 42.4545 21.8636C43.0758 22.303 43.8371 22.5227 44.7386 22.5227ZM57.1136 26V8.54545H61.1023V11.4545H61.2841C61.6023 10.447 62.1477 9.67045 62.9205 9.125C63.7008 8.57197 64.5909 8.29545 65.5909 8.29545C65.8182 8.29545 66.072 8.30682 66.3523 8.32954C66.6402 8.3447 66.8788 8.37121 67.0682 8.40909V12.1932C66.8939 12.1326 66.6174 12.0795 66.2386 12.0341C65.8674 11.9811 65.5076 11.9545 65.1591 11.9545C64.4091 11.9545 63.7348 12.1174 63.1364 12.4432C62.5455 12.7614 62.0795 13.2045 61.7386 13.7727C61.3977 14.3409 61.2273 14.9962 61.2273 15.7386V26H57.1136ZM69.8011 26V8.54545H73.9148V26H69.8011ZM71.8693 6.06818C71.2178 6.06818 70.6572 5.85227 70.1875 5.42045C69.7178 4.98106 69.483 4.45454 69.483 3.84091C69.483 3.2197 69.7178 2.69318 70.1875 2.26136C70.6572 1.82197 71.2178 1.60227 71.8693 1.60227C72.5284 1.60227 73.089 1.82197 73.5511 2.26136C74.0208 2.69318 74.2557 3.2197 74.2557 3.84091C74.2557 4.45454 74.0208 4.98106 73.5511 5.42045C73.089 5.85227 72.5284 6.06818 71.8693 6.06818ZM84.6222 26.3068C83.2509 26.3068 82.0237 25.9545 80.9403 25.25C79.857 24.5455 79.0009 23.5227 78.3722 22.1818C77.7434 20.8409 77.429 19.2121 77.429 17.2955C77.429 15.3561 77.7472 13.7197 78.3835 12.3864C79.0275 11.0455 79.8949 10.0341 80.9858 9.35227C82.0767 8.66288 83.2926 8.31818 84.6335 8.31818C85.6563 8.31818 86.4972 8.49242 87.1562 8.84091C87.8153 9.18182 88.3381 9.5947 88.7244 10.0795C89.1108 10.5568 89.41 11.0076 89.6222 11.4318H89.7926V2.72727H93.9176V26H89.8722V23.25H89.6222C89.41 23.6742 89.1032 24.125 88.7017 24.6023C88.3002 25.072 87.7699 25.4735 87.1108 25.8068C86.4517 26.1402 85.6222 26.3068 84.6222 26.3068ZM85.7699 22.9318C86.6411 22.9318 87.3835 22.697 87.9972 22.2273C88.6108 21.75 89.0767 21.0871 89.3949 20.2386C89.7131 19.3902 89.8722 18.4015 89.8722 17.2727C89.8722 16.1439 89.7131 15.1629 89.3949 14.3295C89.0843 13.4962 88.6222 12.8485 88.0085 12.3864C87.4025 11.9242 86.6563 11.6932 85.7699 11.6932C84.8532 11.6932 84.0881 11.9318 83.4744 12.4091C82.8608 12.8864 82.3987 13.5455 82.0881 14.3864C81.7775 15.2273 81.6222 16.1894 81.6222 17.2727C81.6222 18.3636 81.7775 19.3371 82.0881 20.1932C82.4063 21.0417 82.8722 21.7121 83.4858 22.2045C84.107 22.6894 84.8684 22.9318 85.7699 22.9318ZM100.835 26.25C100.146 26.25 99.5549 26.0076 99.0625 25.5227C98.5701 25.0379 98.3277 24.447 98.3352 23.75C98.3277 23.0682 98.5701 22.4848 99.0625 22C99.5549 21.5152 100.146 21.2727 100.835 21.2727C101.502 21.2727 102.081 21.5152 102.574 22C103.074 22.4848 103.328 23.0682 103.335 23.75C103.328 24.2121 103.206 24.6326 102.972 25.0114C102.744 25.3902 102.441 25.6932 102.062 25.9205C101.691 26.1402 101.282 26.25 100.835 26.25Z" fill="black"/>
<path d="M12 8H7C6.44772 8 6 8.44772 6 9V16C6 16.5523 6.44772 17 7 17H12C12.5523 17 13 16.5523 13 16V9C13 8.44772 12.5523 8 12 8Z" fill="black" stroke="black" stroke-width="2" stroke-linecap="round" stroke-linejoin="round"/>
<path d="M23 8H18C17.4477 8 17 8.44772 17 9V12C17 12.5523 17.4477 13 18 13H23C23.5523 13 24 12.5523 24 12V9C24 8.44772 23.5523 8 23 8Z" fill="black" stroke="black" stroke-width="2" stroke-linecap="round" stroke-linejoin="round"/>
<path d="M23 17H18C17.4477 17 17 17.4477 17 18V25C17 25.5523 17.4477 26 18 26H23C23.5523 26 24 25.5523 24 25V18C24 17.4477 23.5523 17 23 17Z" fill="#B8B8B8" stroke="#B8B8B8" stroke-width="2" stroke-linecap="round" stroke-linejoin="round"/>
<path d="M12 21H7C6.44772 21 6 21.4477 6 22V25C6 25.5523 6.44772 26 7 26H12C12.5523 26 13 25.5523 13 25V22C13 21.4477 12.5523 21 12 21Z" fill="black" stroke="black" stroke-width="2" stroke-linecap="round" stroke-linejoin="round"/>
</svg>
