<svg width="82" height="19" viewBox="0 0 82 19" fill="none" xmlns="http://www.w3.org/2000/svg">
<path d="M0.321023 18V0.545454H4.53977V7.92614H4.76989L10.5398 0.545454H15.5085L9.32102 8.33523L15.6193 18H10.5739L6.22727 11.1392L4.53977 13.2699V18H0.321023ZM22.3224 18.2472C20.9474 18.2472 19.7656 17.9659 18.777 17.4034C17.794 16.8352 17.0355 16.0455 16.5014 15.0341C15.973 14.017 15.7088 12.8381 15.7088 11.4972C15.7088 10.1506 15.973 8.97159 16.5014 7.96023C17.0355 6.94318 17.794 6.15341 18.777 5.59091C19.7656 5.02273 20.9474 4.73864 22.3224 4.73864C23.6974 4.73864 24.8764 5.02273 25.8594 5.59091C26.848 6.15341 27.6065 6.94318 28.1349 7.96023C28.669 8.97159 28.9361 10.1506 28.9361 11.4972C28.9361 12.8381 28.669 14.017 28.1349 15.0341C27.6065 16.0455 26.848 16.8352 25.8594 17.4034C24.8764 17.9659 23.6974 18.2472 22.3224 18.2472ZM22.348 15.1023C22.848 15.1023 23.2713 14.9489 23.6179 14.642C23.9645 14.3352 24.2287 13.9091 24.4105 13.3636C24.598 12.8182 24.6918 12.1875 24.6918 11.4716C24.6918 10.7443 24.598 10.108 24.4105 9.5625C24.2287 9.01705 23.9645 8.59091 23.6179 8.28409C23.2713 7.97727 22.848 7.82386 22.348 7.82386C21.831 7.82386 21.3935 7.97727 21.0355 8.28409C20.6832 8.59091 20.4134 9.01705 20.2259 9.5625C20.044 10.108 19.9531 10.7443 19.9531 11.4716C19.9531 12.1875 20.044 12.8182 20.2259 13.3636C20.4134 13.9091 20.6832 14.3352 21.0355 14.642C21.3935 14.9489 21.831 15.1023 22.348 15.1023ZM31.071 18V0.545454H35.2386V7.15057H35.3239C35.4943 6.75284 35.7358 6.36932 36.0483 6C36.3665 5.63068 36.7699 5.32955 37.2585 5.09659C37.7528 4.85795 38.3438 4.73864 39.0312 4.73864C39.9403 4.73864 40.7898 4.97727 41.5795 5.45454C42.375 5.93182 43.017 6.66761 43.5057 7.66193C43.9943 8.65625 44.2386 9.9233 44.2386 11.4631C44.2386 12.946 44.0028 14.1875 43.5312 15.1875C43.0653 16.1875 42.4347 16.9375 41.6392 17.4375C40.8494 17.9375 39.9716 18.1875 39.0057 18.1875C38.3466 18.1875 37.7756 18.0795 37.2926 17.8636C36.8097 17.6477 36.4034 17.3636 36.0739 17.0114C35.75 16.6591 35.5 16.2812 35.3239 15.8778H35.196V18H31.071ZM35.1534 11.4545C35.1534 12.1591 35.2472 12.7727 35.4347 13.2955C35.6278 13.8182 35.9034 14.2244 36.2614 14.5142C36.625 14.7983 37.0597 14.9403 37.5653 14.9403C38.0767 14.9403 38.5114 14.7983 38.8693 14.5142C39.2273 14.2244 39.4972 13.8182 39.679 13.2955C39.8665 12.7727 39.9602 12.1591 39.9602 11.4545C39.9602 10.75 39.8665 10.1392 39.679 9.62216C39.4972 9.10511 39.2273 8.70455 38.8693 8.42045C38.517 8.13636 38.0824 7.99432 37.5653 7.99432C37.054 7.99432 36.6193 8.13352 36.2614 8.41193C35.9034 8.69034 35.6278 9.08807 35.4347 9.60511C35.2472 10.1222 35.1534 10.7386 35.1534 11.4545ZM50.1129 18.2216C49.2777 18.2216 48.5362 18.0824 47.8885 17.804C47.2464 17.5199 46.7379 17.0937 46.3629 16.5256C45.9936 15.9517 45.8089 15.233 45.8089 14.3693C45.8089 13.642 45.9368 13.0284 46.1925 12.5284C46.4482 12.0284 46.8004 11.6222 47.2493 11.3097C47.6982 10.9972 48.2152 10.7614 48.8004 10.6023C49.3857 10.4375 50.0107 10.3267 50.6754 10.2699C51.4197 10.2017 52.0192 10.1307 52.4737 10.0568C52.9283 9.97727 53.2578 9.86648 53.4624 9.72443C53.6726 9.5767 53.7777 9.36932 53.7777 9.10227V9.05966C53.7777 8.62216 53.6271 8.28409 53.326 8.04545C53.0249 7.80682 52.6186 7.6875 52.1072 7.6875C51.5561 7.6875 51.1129 7.80682 50.7777 8.04545C50.4425 8.28409 50.2294 8.61364 50.1385 9.03409L46.2947 8.89773C46.4084 8.10227 46.701 7.39205 47.1726 6.76705C47.6499 6.13636 48.3033 5.64205 49.1328 5.28409C49.968 4.92045 50.9709 4.73864 52.1413 4.73864C52.9766 4.73864 53.7464 4.83807 54.451 5.03693C55.1555 5.23011 55.7692 5.5142 56.2919 5.8892C56.8146 6.25852 57.218 6.71307 57.5021 7.25284C57.7919 7.79261 57.9368 8.40909 57.9368 9.10227V18H54.0163V16.1761H53.9141C53.6811 16.6193 53.3828 16.9943 53.0192 17.3011C52.6612 17.608 52.2379 17.8381 51.7493 17.9915C51.2663 18.1449 50.7209 18.2216 50.1129 18.2216ZM51.3999 15.4943C51.8487 15.4943 52.2521 15.4034 52.6101 15.2216C52.9737 15.0398 53.2635 14.7898 53.4794 14.4716C53.6953 14.1477 53.8033 13.7727 53.8033 13.3466V12.1023C53.6839 12.1648 53.5391 12.2216 53.3686 12.2727C53.2038 12.3239 53.022 12.3722 52.8232 12.4176C52.6243 12.4631 52.4197 12.5028 52.2095 12.5369C51.9993 12.571 51.7976 12.6023 51.6044 12.6307C51.2124 12.6932 50.8771 12.7898 50.5987 12.9205C50.326 13.0511 50.1158 13.2216 49.968 13.4318C49.826 13.6364 49.755 13.8807 49.755 14.1648C49.755 14.5966 49.9084 14.9261 50.2152 15.1534C50.5277 15.3807 50.9226 15.4943 51.3999 15.4943ZM64.6527 0.545454V18H60.4851V0.545454H64.6527ZM74.6946 4.90909V7.97727H66.4361V4.90909H74.6946ZM68.1662 1.77273H72.3338V13.8835C72.3338 14.1392 72.3736 14.3466 72.4531 14.5057C72.5384 14.6591 72.6605 14.7699 72.8196 14.8381C72.9787 14.9006 73.169 14.9318 73.3906 14.9318C73.5497 14.9318 73.7173 14.9176 73.8935 14.8892C74.0753 14.8551 74.2116 14.8267 74.3026 14.804L74.9332 17.8125C74.7344 17.8693 74.4531 17.9403 74.0895 18.0256C73.7315 18.1108 73.3026 18.1648 72.8026 18.1875C71.8253 18.233 70.9872 18.1193 70.2884 17.8466C69.5952 17.5682 69.0639 17.1364 68.6946 16.5511C68.331 15.9659 68.1548 15.2301 68.1662 14.3438V1.77273ZM79.1648 18.2472C78.5511 18.2472 78.0256 18.0312 77.5881 17.5994C77.1563 17.1676 76.9432 16.6449 76.9489 16.0312C76.9432 15.429 77.1563 14.9148 77.5881 14.4886C78.0256 14.0568 78.5511 13.8409 79.1648 13.8409C79.7443 13.8409 80.2557 14.0568 80.6989 14.4886C81.1477 14.9148 81.375 15.429 81.3807 16.0312C81.375 16.4403 81.267 16.8125 81.0568 17.1477C80.8523 17.483 80.5824 17.75 80.2472 17.9489C79.9176 18.1477 79.5568 18.2472 79.1648 18.2472Z" fill="#121A42"/>
</svg>
