<svg width="128" height="32" viewBox="0 0 128 32" fill="none" xmlns="http://www.w3.org/2000/svg">
<path d="M45.2852 21.2852L43.1875 18.8828L51.6953 10.5039L51.707 10.4805L49.7734 10.3516V7.9375H57.7422V10.3516L56.1367 10.6914L45.2852 21.2852ZM40.4688 25V22.5977L42.2383 22.2227V10.7266L40.4688 10.3516V7.9375H47.9688V10.3516L46.3516 10.7266V22.2227L47.9688 22.5977V25H40.4688ZM50.1367 25V22.5977L51.8477 22.4688H51.8711L47.7695 16.8555L50.6406 14.3125L56.6172 22.3047L58.3633 22.5977V25H50.1367ZM65.043 25.2461C63.7383 25.2461 62.6211 24.9766 61.6914 24.4375C60.7695 23.8906 60.0625 23.1328 59.5703 22.1641C59.0859 21.1875 58.8438 20.0586 58.8438 18.7773V18.543C58.8438 17.2773 59.0859 16.1602 59.5703 15.1914C60.0625 14.2227 60.7695 13.4648 61.6914 12.918C62.6133 12.3633 63.7227 12.0859 65.0195 12.0859C66.3242 12.0859 67.4336 12.3594 68.3477 12.9062C69.2695 13.4531 69.9727 14.2109 70.457 15.1797C70.9492 16.1484 71.1953 17.2695 71.1953 18.543V18.7773C71.1953 20.0508 70.9492 21.1758 70.457 22.1523C69.9727 23.1211 69.2695 23.8789 68.3477 24.4258C67.4336 24.9727 66.332 25.2461 65.043 25.2461ZM65.043 22.1172C65.543 22.1172 65.9414 21.9844 66.2383 21.7188C66.543 21.4453 66.7617 21.0586 66.8945 20.5586C67.0352 20.0586 67.1055 19.4648 67.1055 18.7773V18.543C67.1055 17.8789 67.0352 17.3008 66.8945 16.8086C66.7617 16.3086 66.543 15.9219 66.2383 15.6484C65.9336 15.3672 65.5273 15.2266 65.0195 15.2266C64.5195 15.2266 64.1172 15.3672 63.8125 15.6484C63.5078 15.9219 63.2891 16.3086 63.1562 16.8086C63.0234 17.3008 62.957 17.8789 62.957 18.543V18.7773C62.957 19.4727 63.0234 20.0703 63.1562 20.5703C63.2891 21.0703 63.5078 21.4531 63.8125 21.7188C64.1172 21.9844 64.5273 22.1172 65.043 22.1172ZM80.0547 25.2461C79.2969 25.2461 78.6562 25.0977 78.1328 24.8008C77.6172 24.4961 77.1797 24.0586 76.8203 23.4883L76.5508 25H73V9.50781L71.2422 9.13281V6.71875H77.1016V13.5742C77.4453 13.0977 77.8672 12.7305 78.3672 12.4727C78.875 12.2148 79.4609 12.0859 80.125 12.0859C81.1328 12.0859 81.9844 12.3555 82.6797 12.8945C83.3828 13.4336 83.9141 14.1992 84.2734 15.1914C84.6406 16.1758 84.8242 17.3398 84.8242 18.6836V18.9297C84.8242 20.2109 84.6406 21.3281 84.2734 22.2812C83.9141 23.2266 83.3789 23.957 82.668 24.4727C81.9648 24.9883 81.0938 25.2461 80.0547 25.2461ZM78.7422 22.0938C79.4844 22.0938 80 21.832 80.2891 21.3086C80.5859 20.7852 80.7344 19.9922 80.7344 18.9297V18.6836C80.7344 17.9492 80.668 17.3281 80.5352 16.8203C80.4102 16.3047 80.207 15.9141 79.9258 15.6484C79.6445 15.375 79.2695 15.2383 78.8008 15.2383C78.418 15.2383 78.0781 15.3281 77.7812 15.5078C77.4922 15.6875 77.2656 15.9336 77.1016 16.2461V21.3438C77.3047 21.6094 77.543 21.8008 77.8164 21.918C78.0977 22.0352 78.4062 22.0938 78.7422 22.0938ZM90.6484 25.2461C89.4219 25.2461 88.4219 24.8984 87.6484 24.2031C86.875 23.5078 86.4883 22.582 86.4883 21.4258C86.4883 20.6367 86.6992 19.9375 87.1211 19.3281C87.5508 18.7188 88.1914 18.2422 89.043 17.8984C89.9023 17.5469 90.9766 17.3711 92.2656 17.3711H93.5898V16.6211C93.5898 16.1133 93.4453 15.6836 93.1562 15.332C92.8672 14.9727 92.4102 14.793 91.7852 14.793C91.5195 14.793 91.2695 14.8281 91.0352 14.8984C90.8086 14.9609 90.6016 15.0547 90.4141 15.1797L90.1328 16.7969H87.2383L87.1797 13.2695C87.8984 12.9492 88.6484 12.6719 89.4297 12.4375C90.2188 12.2031 91.0977 12.0859 92.0664 12.0859C93.793 12.0859 95.1641 12.4844 96.1797 13.2812C97.1953 14.0703 97.7031 15.1992 97.7031 16.668V21.3438C97.7031 21.5234 97.7031 21.6992 97.7031 21.8711C97.7109 22.043 97.7305 22.207 97.7617 22.3633L99.1328 22.5977V25H94.3281C94.2266 24.8594 94.1172 24.6719 94 24.4375C93.8828 24.2031 93.8008 23.9688 93.7539 23.7344C93.3711 24.2109 92.9414 24.582 92.4648 24.8477C91.9883 25.1133 91.3828 25.2461 90.6484 25.2461ZM91.9141 22.3398C92.2109 22.3398 92.5078 22.2812 92.8047 22.1641C93.1094 22.0391 93.3711 21.8555 93.5898 21.6133V19.7852H92.3125C91.7578 19.7852 91.3281 19.9062 91.0234 20.1484C90.7266 20.3906 90.5781 20.7109 90.5781 21.1094C90.5781 21.4922 90.7031 21.793 90.9531 22.0117C91.2031 22.2305 91.5234 22.3398 91.9141 22.3398ZM99.7656 25V22.5977L101.266 22.2227V9.50781L99.4844 9.13281V6.71875H105.379V22.2227L106.867 22.5977V25H99.7656ZM112.961 25.2695C111.633 25.2695 110.621 24.918 109.926 24.2148C109.238 23.5039 108.895 22.3828 108.895 20.8516V15.1562H107.312V12.3203H108.895V9.19141H112.984V12.3203H115.059V15.1562H112.984V20.8398C112.984 21.2539 113.078 21.543 113.266 21.707C113.453 21.8711 113.711 21.9531 114.039 21.9531C114.18 21.9531 114.32 21.9453 114.461 21.9297C114.602 21.9141 114.742 21.8945 114.883 21.8711L115.164 24.9414C114.805 25.043 114.441 25.1211 114.074 25.1758C113.715 25.2383 113.344 25.2695 112.961 25.2695ZM117.074 23.2656C117.074 22.7344 117.262 22.2891 117.637 21.9297C118.02 21.5703 118.516 21.3906 119.125 21.3906C119.742 21.3906 120.234 21.5703 120.602 21.9297C120.977 22.2891 121.164 22.7344 121.164 23.2656C121.164 23.7891 120.977 24.2305 120.602 24.5898C120.234 24.9492 119.742 25.1289 119.125 25.1289C118.516 25.1289 118.02 24.9492 117.637 24.5898C117.262 24.2305 117.074 23.7891 117.074 23.2656Z" fill="#121A42"/>
<path d="M10.416 8.3335H11.4993C12.3613 8.3335 13.188 8.67591 13.7974 9.2854C14.4069 9.89489 14.7493 10.7215 14.7493 11.5835C14.7493 10.7215 15.0918 9.89489 15.7013 9.2854C16.3107 8.67591 17.1374 8.3335 17.9993 8.3335H19.0827" stroke="#1A56DB" stroke-width="2.25" stroke-linecap="round" stroke-linejoin="round"/>
<path d="M19.0827 25.6665H17.9993C17.1374 25.6665 16.3107 25.3241 15.7013 24.7146C15.0918 24.1051 14.7493 23.2785 14.7493 22.4165C14.7493 23.2785 14.4069 24.1051 13.7974 24.7146C13.188 25.3241 12.3613 25.6665 11.4993 25.6665H10.416" stroke="#1A56DB" stroke-width="2.25" stroke-linecap="round" stroke-linejoin="round"/>
<path d="M10.416 21.3332H9.33268C8.75805 21.3332 8.20695 21.1049 7.80062 20.6986C7.39429 20.2922 7.16602 19.7411 7.16602 19.1665V14.8332C7.16602 14.2585 7.39429 13.7074 7.80062 13.3011C8.20695 12.8948 8.75805 12.6665 9.33268 12.6665H10.416" stroke="#6B7280" stroke-width="2.25" stroke-linecap="round" stroke-linejoin="round"/>
<path d="M19.084 12.6665H26.6673C27.242 12.6665 27.7931 12.8948 28.1994 13.3011C28.6057 13.7074 28.834 14.2585 28.834 14.8332V19.1665C28.834 19.7411 28.6057 20.2922 28.1994 20.6986C27.7931 21.1049 27.242 21.3332 26.6673 21.3332H19.084" stroke="#6B7280" stroke-width="2.25" stroke-linecap="round" stroke-linejoin="round"/>
<path d="M14.75 11.5835V22.4168" stroke="#1A56DB" stroke-width="2.25" stroke-linecap="round" stroke-linejoin="round"/>
</svg>
