<svg width="124" height="29" viewBox="0 0 124 29" fill="none" xmlns="http://www.w3.org/2000/svg">
<path d="M35.7216 23V5.54545H38.8835V13.5653H39.0966L45.9062 5.54545H49.767L43.017 13.3778L49.8267 23H46.0256L40.8182 15.517L38.8835 17.8011V23H35.7216ZM56.5767 23.2557C55.2983 23.2557 54.1903 22.9744 53.2528 22.4119C52.3153 21.8494 51.5881 21.0625 51.071 20.0511C50.5597 19.0398 50.304 17.858 50.304 16.5057C50.304 15.1534 50.5597 13.9687 51.071 12.9517C51.5881 11.9347 52.3153 11.1449 53.2528 10.5824C54.1903 10.0199 55.2983 9.73864 56.5767 9.73864C57.8551 9.73864 58.9631 10.0199 59.9006 10.5824C60.8381 11.1449 61.5625 11.9347 62.0739 12.9517C62.5909 13.9687 62.8494 15.1534 62.8494 16.5057C62.8494 17.858 62.5909 19.0398 62.0739 20.0511C61.5625 21.0625 60.8381 21.8494 59.9006 22.4119C58.9631 22.9744 57.8551 23.2557 56.5767 23.2557ZM56.5938 20.7841C57.2869 20.7841 57.8665 20.5937 58.3324 20.2131C58.7983 19.8267 59.1449 19.3097 59.3722 18.6619C59.6051 18.0142 59.7216 17.2926 59.7216 16.4972C59.7216 15.696 59.6051 14.9716 59.3722 14.3239C59.1449 13.6705 58.7983 13.1506 58.3324 12.7642C57.8665 12.3778 57.2869 12.1847 56.5938 12.1847C55.8835 12.1847 55.2926 12.3778 54.821 12.7642C54.3551 13.1506 54.0057 13.6705 53.7727 14.3239C53.5455 14.9716 53.4318 15.696 53.4318 16.4972C53.4318 17.2926 53.5455 18.0142 53.7727 18.6619C54.0057 19.3097 54.3551 19.8267 54.821 20.2131C55.2926 20.5937 55.8835 20.7841 56.5938 20.7841ZM65.6044 23V5.54545H68.6896V12.0739H68.8175C68.9766 11.7557 69.201 11.4176 69.4908 11.0597C69.7805 10.696 70.1726 10.3864 70.6669 10.1307C71.1612 9.86932 71.7919 9.73864 72.5589 9.73864C73.5703 9.73864 74.4822 9.99716 75.2947 10.5142C76.1129 11.0256 76.7607 11.7841 77.2379 12.7898C77.7209 13.7898 77.9624 15.017 77.9624 16.4716C77.9624 17.9091 77.7266 19.1307 77.255 20.1364C76.7834 21.142 76.1413 21.9091 75.3288 22.4375C74.5163 22.9659 73.5959 23.2301 72.5675 23.2301C71.8175 23.2301 71.1953 23.1051 70.701 22.8551C70.2067 22.6051 69.8089 22.304 69.5078 21.9517C69.2124 21.5937 68.9822 21.2557 68.8175 20.9375H68.6385V23H65.6044ZM68.63 16.4545C68.63 17.3011 68.7493 18.0426 68.9879 18.679C69.2322 19.3153 69.5817 19.8125 70.0362 20.1705C70.4964 20.5227 71.0533 20.6989 71.7067 20.6989C72.3885 20.6989 72.9595 20.517 73.4197 20.1534C73.88 19.7841 74.2266 19.2812 74.4595 18.6449C74.6982 18.0028 74.8175 17.2727 74.8175 16.4545C74.8175 15.642 74.701 14.9205 74.468 14.2898C74.2351 13.6591 73.8885 13.1648 73.4283 12.8068C72.968 12.4489 72.3942 12.2699 71.7067 12.2699C71.0476 12.2699 70.4879 12.4432 70.0277 12.7898C69.5675 13.1364 69.218 13.6222 68.9794 14.2472C68.7464 14.8722 68.63 15.608 68.63 16.4545ZM84.3523 23.2642C83.5227 23.2642 82.7756 23.1165 82.1108 22.821C81.4517 22.5199 80.929 22.0767 80.5426 21.4915C80.1619 20.9062 79.9716 20.1847 79.9716 19.3267C79.9716 18.5881 80.108 17.9773 80.3807 17.4943C80.6534 17.0114 81.0256 16.625 81.4972 16.3352C81.9688 16.0455 82.5 15.8267 83.0909 15.679C83.6875 15.5256 84.304 15.4148 84.9403 15.3466C85.7074 15.267 86.3295 15.196 86.8068 15.1335C87.2841 15.0653 87.6307 14.9631 87.8466 14.8267C88.0682 14.6847 88.179 14.4659 88.179 14.1705V14.1193C88.179 13.4773 87.9886 12.9801 87.608 12.6278C87.2273 12.2756 86.679 12.0994 85.9631 12.0994C85.2074 12.0994 84.608 12.2642 84.1648 12.5938C83.7273 12.9233 83.4318 13.3125 83.2784 13.7614L80.3977 13.3523C80.625 12.5568 81 11.892 81.5227 11.358C82.0455 10.8182 82.6847 10.4148 83.4403 10.1477C84.196 9.875 85.0313 9.73864 85.946 9.73864C86.5767 9.73864 87.2045 9.8125 87.8295 9.96023C88.4545 10.108 89.0256 10.3523 89.5426 10.6932C90.0597 11.0284 90.4744 11.4858 90.7869 12.0653C91.1051 12.6449 91.2642 13.3693 91.2642 14.2386V23H88.2983V21.2017H88.196C88.0085 21.5653 87.7443 21.9062 87.4034 22.2244C87.0682 22.5369 86.6449 22.7898 86.1335 22.983C85.6278 23.1705 85.0341 23.2642 84.3523 23.2642ZM85.1534 20.9972C85.7727 20.9972 86.3097 20.875 86.7642 20.6307C87.2188 20.3807 87.5682 20.0511 87.8125 19.642C88.0625 19.233 88.1875 18.7869 88.1875 18.304V16.7614C88.0909 16.8409 87.9261 16.9148 87.6932 16.983C87.4659 17.0511 87.2102 17.1108 86.9261 17.1619C86.642 17.2131 86.3608 17.2585 86.0824 17.2983C85.804 17.3381 85.5625 17.3722 85.358 17.4006C84.8977 17.4631 84.4858 17.5653 84.1222 17.7074C83.7585 17.8494 83.4716 18.0483 83.2614 18.304C83.0511 18.554 82.946 18.8778 82.946 19.2756C82.946 19.8438 83.1534 20.2727 83.5682 20.5625C83.983 20.8523 84.5114 20.9972 85.1534 20.9972ZM97.4517 5.54545V23H94.3665V5.54545H97.4517ZM107.161 9.90909V12.2955H99.6357V9.90909H107.161ZM101.494 6.77273H104.579V19.0625C104.579 19.4773 104.641 19.7955 104.766 20.017C104.897 20.233 105.067 20.3807 105.278 20.4602C105.488 20.5398 105.721 20.5795 105.977 20.5795C106.17 20.5795 106.346 20.5653 106.505 20.5369C106.67 20.5085 106.795 20.483 106.88 20.4602L107.4 22.8722C107.235 22.929 106.999 22.9915 106.692 23.0597C106.391 23.1278 106.022 23.1676 105.585 23.179C104.812 23.2017 104.116 23.0852 103.496 22.8295C102.877 22.5682 102.386 22.1648 102.022 21.6193C101.664 21.0739 101.488 20.392 101.494 19.5739V6.77273ZM111.642 23.1875C111.125 23.1875 110.682 23.0057 110.312 22.642C109.943 22.2784 109.761 21.8352 109.767 21.3125C109.761 20.8011 109.943 20.3636 110.312 20C110.682 19.6364 111.125 19.4545 111.642 19.4545C112.142 19.4545 112.577 19.6364 112.946 20C113.321 20.3636 113.511 20.8011 113.517 21.3125C113.511 21.6591 113.42 21.9744 113.244 22.2585C113.074 22.5426 112.847 22.7699 112.562 22.9403C112.284 23.1051 111.977 23.1875 111.642 23.1875Z" fill="black"/>
<path d="M14.2058 13.3868L17 11.7735L19.7942 13.3868V16.6132L17 18.2265L14.2058 16.6132V13.3868Z" fill="#000E8F" stroke="#000E8F" stroke-width="10"/>
</svg>
