<svg width="107" height="32" viewBox="0 0 107 32" fill="none" xmlns="http://www.w3.org/2000/svg">
<g clip-path="url(#clip0_703_1031)">
<path d="M31.1445 20.6641L29.4922 18.7539L37.7891 10.0703L37.8125 10.0234L36.2188 9.87109V7.9375H42.9102V9.87109L41.3047 10.1875L31.1445 20.6641ZM26.7148 25V23.0781L28.5547 22.7266V10.2227L26.7148 9.87109V7.9375H33.5117V9.87109L31.7422 10.2227V22.7266L33.5117 23.0781V25H26.7148ZM36.5938 25V23.0781L38.1523 22.9258V22.9141L33.7344 16.8203L35.7969 14.6523L41.8672 22.7852L43.5195 23.0781V25H36.5938ZM50.1172 25.2461C48.875 25.2461 47.8125 24.9727 46.9297 24.4258C46.0469 23.8789 45.3672 23.1211 44.8906 22.1523C44.4141 21.1758 44.1758 20.0547 44.1758 18.7891V18.543C44.1758 17.2852 44.4141 16.1719 44.8906 15.2031C45.3672 14.2344 46.0469 13.4727 46.9297 12.918C47.8125 12.3633 48.8672 12.0859 50.0938 12.0859C51.3281 12.0859 52.3867 12.3633 53.2695 12.918C54.1523 13.4648 54.8281 14.2227 55.2969 15.1914C55.7734 16.1602 56.0117 17.2773 56.0117 18.543V18.7891C56.0117 20.0547 55.7734 21.1758 55.2969 22.1523C54.8281 23.1211 54.1523 23.8789 53.2695 24.4258C52.3867 24.9727 51.3359 25.2461 50.1172 25.2461ZM50.1172 22.7969C50.7344 22.7969 51.2422 22.6289 51.6406 22.293C52.0469 21.957 52.3477 21.4883 52.543 20.8867C52.7383 20.2773 52.8359 19.5781 52.8359 18.7891V18.543C52.8359 17.7617 52.7383 17.0703 52.543 16.4688C52.3477 15.8672 52.0469 15.3984 51.6406 15.0625C51.2344 14.7188 50.7188 14.5469 50.0938 14.5469C49.4688 14.5469 48.9531 14.7188 48.5469 15.0625C48.1484 15.3984 47.8516 15.8672 47.6562 16.4688C47.4609 17.0703 47.3633 17.7617 47.3633 18.543V18.7891C47.3633 19.5859 47.4609 20.2852 47.6562 20.8867C47.8516 21.4883 48.1523 21.957 48.5586 22.293C48.9648 22.6289 49.4844 22.7969 50.1172 22.7969ZM64.6953 25.2461C63.9062 25.2461 63.2266 25.0938 62.6562 24.7891C62.0938 24.4766 61.6211 24.0234 61.2383 23.4297L61.0039 25H58.25V9.00391L56.4102 8.65234V6.71875H61.4258V13.7031C61.8008 13.1797 62.2617 12.7812 62.8086 12.5078C63.3555 12.2266 63.9922 12.0859 64.7188 12.0859C65.75 12.0859 66.625 12.3633 67.3438 12.918C68.0625 13.4727 68.6094 14.2539 68.9844 15.2617C69.3672 16.2617 69.5586 17.4375 69.5586 18.7891V19.0352C69.5586 20.2852 69.3672 21.3789 68.9844 22.3164C68.6094 23.2461 68.0586 23.9688 67.332 24.4844C66.6133 24.9922 65.7344 25.2461 64.6953 25.2461ZM63.7578 22.75C64.6797 22.75 65.3477 22.4258 65.7617 21.7773C66.1758 21.1211 66.3828 20.207 66.3828 19.0352V18.7891C66.3828 17.9297 66.2891 17.1875 66.1016 16.5625C65.9219 15.9375 65.6406 15.4531 65.2578 15.1094C64.875 14.7578 64.3828 14.582 63.7812 14.582C63.2266 14.582 62.7539 14.7148 62.3633 14.9805C61.9727 15.2461 61.6602 15.6016 61.4258 16.0469V21.4023C61.6758 21.832 61.9961 22.1641 62.3867 22.3984C62.7773 22.6328 63.2344 22.75 63.7578 22.75ZM75.3945 25.2461C74.1211 25.2461 73.1172 24.9141 72.3828 24.25C71.6562 23.5781 71.293 22.6602 71.293 21.4961C71.293 20.6992 71.5078 20 71.9375 19.3984C72.375 18.7891 73.0156 18.3164 73.8594 17.9805C74.7109 17.6367 75.7461 17.4648 76.9648 17.4648H78.7695V16.4688C78.7695 15.8281 78.5781 15.3125 78.1953 14.9219C77.8203 14.5312 77.2656 14.3359 76.5312 14.3359C76.1328 14.3359 75.7734 14.3867 75.4531 14.4883C75.1406 14.582 74.8594 14.7188 74.6094 14.8984L74.3398 16.5977H72.0195L71.9961 13.3867C72.6367 12.9961 73.3398 12.6836 74.1055 12.4492C74.8789 12.207 75.7383 12.0859 76.6836 12.0859C78.3164 12.0859 79.6016 12.4688 80.5391 13.2344C81.4844 13.9922 81.957 15.082 81.957 16.5039V21.9062C81.957 22.0781 81.957 22.2461 81.957 22.4102C81.9648 22.5742 81.9805 22.7344 82.0039 22.8906L83.3047 23.0781V25H79.2617C79.1758 24.7578 79.0938 24.5117 79.0156 24.2617C78.9453 24.0039 78.8945 23.7461 78.8633 23.4883C78.4492 24.0117 77.9531 24.4375 77.375 24.7656C76.8047 25.0859 76.1445 25.2461 75.3945 25.2461ZM76.1797 22.8438C76.7188 22.8438 77.2227 22.7188 77.6914 22.4688C78.168 22.2188 78.5273 21.9023 78.7695 21.5195V19.457H76.9531C76.1328 19.457 75.5117 19.6484 75.0898 20.0312C74.6758 20.4062 74.4688 20.8516 74.4688 21.3672C74.4688 21.8359 74.6172 22.1992 74.9141 22.457C75.2109 22.7148 75.6328 22.8438 76.1797 22.8438ZM84.4766 25V23.0781L86.1875 22.7266V9.00391L84.3477 8.65234V6.71875H89.375V22.7266L91.0859 23.0781V25H84.4766ZM97.1914 25.2344C96.0664 25.2344 95.1914 24.9219 94.5664 24.2969C93.9492 23.6641 93.6406 22.6641 93.6406 21.2969V14.582H91.8477V12.3203H93.6406V9.22656H96.8164V12.3203H99.2422V14.582H96.8164V21.2969C96.8164 21.8125 96.9258 22.1836 97.1445 22.4102C97.3633 22.6367 97.6562 22.75 98.0234 22.75C98.2266 22.75 98.4492 22.7344 98.6914 22.7031C98.9336 22.6719 99.1367 22.6406 99.3008 22.6094L99.6055 24.8711C99.2539 24.9727 98.8633 25.0586 98.4336 25.1289C98.0117 25.1992 97.5977 25.2344 97.1914 25.2344ZM101.703 25V22.1289H104.879V25H101.703Z" fill="#121A42"/>
<path d="M10.5 23.5C14.366 23.5 17.5 20.366 17.5 16.5C17.5 12.634 14.366 9.5 10.5 9.5C6.63401 9.5 3.5 12.634 3.5 16.5C3.5 20.366 6.63401 23.5 10.5 23.5Z" stroke="#1A56DB" stroke-width="2" stroke-linecap="round" stroke-linejoin="round"/>
<path d="M2.625 8.625L5.25 11.25" stroke="#1A56DB" stroke-width="2" stroke-linecap="round" stroke-linejoin="round"/>
<path d="M18.375 8.625L15.75 11.25" stroke="#1A56DB" stroke-width="2" stroke-linecap="round" stroke-linejoin="round"/>
<path d="M2.625 24.375L5.25 21.75" stroke="#1A56DB" stroke-width="2" stroke-linecap="round" stroke-linejoin="round"/>
<path d="M18.375 24.375L15.75 21.75" stroke="#1A56DB" stroke-width="2" stroke-linecap="round" stroke-linejoin="round"/>
</g>
<defs>
<clipPath id="clip0_703_1031">
<rect width="107" height="32" fill="white"/>
</clipPath>
</defs>
</svg>
