<svg width="112" height="29" viewBox="0 0 112 29" fill="none" xmlns="http://www.w3.org/2000/svg">
<g clip-path="url(#clip0_805_37)">
<rect y="4" width="8" height="8" fill="#D9D9D9"/>
<rect x="12" y="4" width="8" height="8" fill="#000E8F"/>
<rect x="12" y="16" width="8" height="8" fill="#D9D9D9"/>
<rect y="16" width="8" height="8" fill="#D9D9D9"/>
<path d="M31.7216 23V5.54545H34.8835V13.5653H35.0966L41.9062 5.54545H45.767L39.017 13.3778L45.8267 23H42.0256L36.8182 15.517L34.8835 17.8011V23H31.7216ZM52.5767 23.2557C51.2983 23.2557 50.1903 22.9744 49.2528 22.4119C48.3153 21.8494 47.5881 21.0625 47.071 20.0511C46.5597 19.0398 46.304 17.858 46.304 16.5057C46.304 15.1534 46.5597 13.9687 47.071 12.9517C47.5881 11.9347 48.3153 11.1449 49.2528 10.5824C50.1903 10.0199 51.2983 9.73864 52.5767 9.73864C53.8551 9.73864 54.9631 10.0199 55.9006 10.5824C56.8381 11.1449 57.5625 11.9347 58.0739 12.9517C58.5909 13.9687 58.8494 15.1534 58.8494 16.5057C58.8494 17.858 58.5909 19.0398 58.0739 20.0511C57.5625 21.0625 56.8381 21.8494 55.9006 22.4119C54.9631 22.9744 53.8551 23.2557 52.5767 23.2557ZM52.5938 20.7841C53.2869 20.7841 53.8665 20.5937 54.3324 20.2131C54.7983 19.8267 55.1449 19.3097 55.3722 18.6619C55.6051 18.0142 55.7216 17.2926 55.7216 16.4972C55.7216 15.696 55.6051 14.9716 55.3722 14.3239C55.1449 13.6705 54.7983 13.1506 54.3324 12.7642C53.8665 12.3778 53.2869 12.1847 52.5938 12.1847C51.8835 12.1847 51.2926 12.3778 50.821 12.7642C50.3551 13.1506 50.0057 13.6705 49.7727 14.3239C49.5455 14.9716 49.4318 15.696 49.4318 16.4972C49.4318 17.2926 49.5455 18.0142 49.7727 18.6619C50.0057 19.3097 50.3551 19.8267 50.821 20.2131C51.2926 20.5937 51.8835 20.7841 52.5938 20.7841ZM61.6044 23V5.54545H64.6896V12.0739H64.8175C64.9766 11.7557 65.201 11.4176 65.4908 11.0597C65.7805 10.696 66.1726 10.3864 66.6669 10.1307C67.1612 9.86932 67.7919 9.73864 68.5589 9.73864C69.5703 9.73864 70.4822 9.99716 71.2947 10.5142C72.1129 11.0256 72.7607 11.7841 73.2379 12.7898C73.7209 13.7898 73.9624 15.017 73.9624 16.4716C73.9624 17.9091 73.7266 19.1307 73.255 20.1364C72.7834 21.142 72.1413 21.9091 71.3288 22.4375C70.5163 22.9659 69.5959 23.2301 68.5675 23.2301C67.8175 23.2301 67.1953 23.1051 66.701 22.8551C66.2067 22.6051 65.8089 22.304 65.5078 21.9517C65.2124 21.5937 64.9822 21.2557 64.8175 20.9375H64.6385V23H61.6044ZM64.63 16.4545C64.63 17.3011 64.7493 18.0426 64.9879 18.679C65.2322 19.3153 65.5817 19.8125 66.0362 20.1705C66.4964 20.5227 67.0533 20.6989 67.7067 20.6989C68.3885 20.6989 68.9595 20.517 69.4197 20.1534C69.88 19.7841 70.2266 19.2812 70.4595 18.6449C70.6982 18.0028 70.8175 17.2727 70.8175 16.4545C70.8175 15.642 70.701 14.9205 70.468 14.2898C70.2351 13.6591 69.8885 13.1648 69.4283 12.8068C68.968 12.4489 68.3942 12.2699 67.7067 12.2699C67.0476 12.2699 66.4879 12.4432 66.0277 12.7898C65.5675 13.1364 65.218 13.6222 64.9794 14.2472C64.7464 14.8722 64.63 15.608 64.63 16.4545ZM80.3523 23.2642C79.5227 23.2642 78.7756 23.1165 78.1108 22.821C77.4517 22.5199 76.929 22.0767 76.5426 21.4915C76.1619 20.9062 75.9716 20.1847 75.9716 19.3267C75.9716 18.5881 76.108 17.9773 76.3807 17.4943C76.6534 17.0114 77.0256 16.625 77.4972 16.3352C77.9688 16.0455 78.5 15.8267 79.0909 15.679C79.6875 15.5256 80.304 15.4148 80.9403 15.3466C81.7074 15.267 82.3295 15.196 82.8068 15.1335C83.2841 15.0653 83.6307 14.9631 83.8466 14.8267C84.0682 14.6847 84.179 14.4659 84.179 14.1705V14.1193C84.179 13.4773 83.9886 12.9801 83.608 12.6278C83.2273 12.2756 82.679 12.0994 81.9631 12.0994C81.2074 12.0994 80.608 12.2642 80.1648 12.5938C79.7273 12.9233 79.4318 13.3125 79.2784 13.7614L76.3977 13.3523C76.625 12.5568 77 11.892 77.5227 11.358C78.0455 10.8182 78.6847 10.4148 79.4403 10.1477C80.196 9.875 81.0313 9.73864 81.946 9.73864C82.5767 9.73864 83.2045 9.8125 83.8295 9.96023C84.4545 10.108 85.0256 10.3523 85.5426 10.6932C86.0597 11.0284 86.4744 11.4858 86.7869 12.0653C87.1051 12.6449 87.2642 13.3693 87.2642 14.2386V23H84.2983V21.2017H84.196C84.0085 21.5653 83.7443 21.9062 83.4034 22.2244C83.0682 22.5369 82.6449 22.7898 82.1335 22.983C81.6278 23.1705 81.0341 23.2642 80.3523 23.2642ZM81.1534 20.9972C81.7727 20.9972 82.3097 20.875 82.7642 20.6307C83.2188 20.3807 83.5682 20.0511 83.8125 19.642C84.0625 19.233 84.1875 18.7869 84.1875 18.304V16.7614C84.0909 16.8409 83.9261 16.9148 83.6932 16.983C83.4659 17.0511 83.2102 17.1108 82.9261 17.1619C82.642 17.2131 82.3608 17.2585 82.0824 17.2983C81.804 17.3381 81.5625 17.3722 81.358 17.4006C80.8977 17.4631 80.4858 17.5653 80.1222 17.7074C79.7585 17.8494 79.4716 18.0483 79.2614 18.304C79.0511 18.554 78.946 18.8778 78.946 19.2756C78.946 19.8438 79.1534 20.2727 79.5682 20.5625C79.983 20.8523 80.5114 20.9972 81.1534 20.9972ZM93.4517 5.54545V23H90.3665V5.54545H93.4517ZM103.161 9.90909V12.2955H95.6357V9.90909H103.161ZM97.4936 6.77273H100.579V19.0625C100.579 19.4773 100.641 19.7955 100.766 20.017C100.897 20.233 101.067 20.3807 101.278 20.4602C101.488 20.5398 101.721 20.5795 101.977 20.5795C102.17 20.5795 102.346 20.5653 102.505 20.5369C102.67 20.5085 102.795 20.483 102.88 20.4602L103.4 22.8722C103.235 22.929 102.999 22.9915 102.692 23.0597C102.391 23.1278 102.022 23.1676 101.585 23.179C100.812 23.2017 100.116 23.0852 99.4964 22.8295C98.8771 22.5682 98.3857 22.1648 98.022 21.6193C97.6641 21.0739 97.4879 20.392 97.4936 19.5739V6.77273ZM107.642 23.1875C107.125 23.1875 106.682 23.0057 106.312 22.642C105.943 22.2784 105.761 21.8352 105.767 21.3125C105.761 20.8011 105.943 20.3636 106.312 20C106.682 19.6364 107.125 19.4545 107.642 19.4545C108.142 19.4545 108.577 19.6364 108.946 20C109.321 20.3636 109.511 20.8011 109.517 21.3125C109.511 21.6591 109.42 21.9744 109.244 22.2585C109.074 22.5426 108.847 22.7699 108.562 22.9403C108.284 23.1051 107.977 23.1875 107.642 23.1875Z" fill="black"/>
</g>
<defs>
<clipPath id="clip0_805_37">
<rect width="112" height="29" fill="white"/>
</clipPath>
</defs>
</svg>
