<svg width="122" height="29" viewBox="0 0 122 29" fill="none" xmlns="http://www.w3.org/2000/svg">
<path d="M34.7216 23V5.54545H37.8835V13.5653H38.0966L44.9062 5.54545H48.767L42.017 13.3778L48.8267 23H45.0256L39.8182 15.517L37.8835 17.8011V23H34.7216ZM55.5767 23.2557C54.2983 23.2557 53.1903 22.9744 52.2528 22.4119C51.3153 21.8494 50.5881 21.0625 50.071 20.0511C49.5597 19.0398 49.304 17.858 49.304 16.5057C49.304 15.1534 49.5597 13.9687 50.071 12.9517C50.5881 11.9347 51.3153 11.1449 52.2528 10.5824C53.1903 10.0199 54.2983 9.73864 55.5767 9.73864C56.8551 9.73864 57.9631 10.0199 58.9006 10.5824C59.8381 11.1449 60.5625 11.9347 61.0739 12.9517C61.5909 13.9687 61.8494 15.1534 61.8494 16.5057C61.8494 17.858 61.5909 19.0398 61.0739 20.0511C60.5625 21.0625 59.8381 21.8494 58.9006 22.4119C57.9631 22.9744 56.8551 23.2557 55.5767 23.2557ZM55.5938 20.7841C56.2869 20.7841 56.8665 20.5937 57.3324 20.2131C57.7983 19.8267 58.1449 19.3097 58.3722 18.6619C58.6051 18.0142 58.7216 17.2926 58.7216 16.4972C58.7216 15.696 58.6051 14.9716 58.3722 14.3239C58.1449 13.6705 57.7983 13.1506 57.3324 12.7642C56.8665 12.3778 56.2869 12.1847 55.5938 12.1847C54.8835 12.1847 54.2926 12.3778 53.821 12.7642C53.3551 13.1506 53.0057 13.6705 52.7727 14.3239C52.5455 14.9716 52.4318 15.696 52.4318 16.4972C52.4318 17.2926 52.5455 18.0142 52.7727 18.6619C53.0057 19.3097 53.3551 19.8267 53.821 20.2131C54.2926 20.5937 54.8835 20.7841 55.5938 20.7841ZM64.6044 23V5.54545H67.6896V12.0739H67.8175C67.9766 11.7557 68.201 11.4176 68.4908 11.0597C68.7805 10.696 69.1726 10.3864 69.6669 10.1307C70.1612 9.86932 70.7919 9.73864 71.5589 9.73864C72.5703 9.73864 73.4822 9.99716 74.2947 10.5142C75.1129 11.0256 75.7607 11.7841 76.2379 12.7898C76.7209 13.7898 76.9624 15.017 76.9624 16.4716C76.9624 17.9091 76.7266 19.1307 76.255 20.1364C75.7834 21.142 75.1413 21.9091 74.3288 22.4375C73.5163 22.9659 72.5959 23.2301 71.5675 23.2301C70.8175 23.2301 70.1953 23.1051 69.701 22.8551C69.2067 22.6051 68.8089 22.304 68.5078 21.9517C68.2124 21.5937 67.9822 21.2557 67.8175 20.9375H67.6385V23H64.6044ZM67.63 16.4545C67.63 17.3011 67.7493 18.0426 67.9879 18.679C68.2322 19.3153 68.5817 19.8125 69.0362 20.1705C69.4964 20.5227 70.0533 20.6989 70.7067 20.6989C71.3885 20.6989 71.9595 20.517 72.4197 20.1534C72.88 19.7841 73.2266 19.2812 73.4595 18.6449C73.6982 18.0028 73.8175 17.2727 73.8175 16.4545C73.8175 15.642 73.701 14.9205 73.468 14.2898C73.2351 13.6591 72.8885 13.1648 72.4283 12.8068C71.968 12.4489 71.3942 12.2699 70.7067 12.2699C70.0476 12.2699 69.4879 12.4432 69.0277 12.7898C68.5675 13.1364 68.218 13.6222 67.9794 14.2472C67.7464 14.8722 67.63 15.608 67.63 16.4545ZM83.3523 23.2642C82.5227 23.2642 81.7756 23.1165 81.1108 22.821C80.4517 22.5199 79.929 22.0767 79.5426 21.4915C79.1619 20.9062 78.9716 20.1847 78.9716 19.3267C78.9716 18.5881 79.108 17.9773 79.3807 17.4943C79.6534 17.0114 80.0256 16.625 80.4972 16.3352C80.9688 16.0455 81.5 15.8267 82.0909 15.679C82.6875 15.5256 83.304 15.4148 83.9403 15.3466C84.7074 15.267 85.3295 15.196 85.8068 15.1335C86.2841 15.0653 86.6307 14.9631 86.8466 14.8267C87.0682 14.6847 87.179 14.4659 87.179 14.1705V14.1193C87.179 13.4773 86.9886 12.9801 86.608 12.6278C86.2273 12.2756 85.679 12.0994 84.9631 12.0994C84.2074 12.0994 83.608 12.2642 83.1648 12.5938C82.7273 12.9233 82.4318 13.3125 82.2784 13.7614L79.3977 13.3523C79.625 12.5568 80 11.892 80.5227 11.358C81.0455 10.8182 81.6847 10.4148 82.4403 10.1477C83.196 9.875 84.0313 9.73864 84.946 9.73864C85.5767 9.73864 86.2045 9.8125 86.8295 9.96023C87.4545 10.108 88.0256 10.3523 88.5426 10.6932C89.0597 11.0284 89.4744 11.4858 89.7869 12.0653C90.1051 12.6449 90.2642 13.3693 90.2642 14.2386V23H87.2983V21.2017H87.196C87.0085 21.5653 86.7443 21.9062 86.4034 22.2244C86.0682 22.5369 85.6449 22.7898 85.1335 22.983C84.6278 23.1705 84.0341 23.2642 83.3523 23.2642ZM84.1534 20.9972C84.7727 20.9972 85.3097 20.875 85.7642 20.6307C86.2188 20.3807 86.5682 20.0511 86.8125 19.642C87.0625 19.233 87.1875 18.7869 87.1875 18.304V16.7614C87.0909 16.8409 86.9261 16.9148 86.6932 16.983C86.4659 17.0511 86.2102 17.1108 85.9261 17.1619C85.642 17.2131 85.3608 17.2585 85.0824 17.2983C84.804 17.3381 84.5625 17.3722 84.358 17.4006C83.8977 17.4631 83.4858 17.5653 83.1222 17.7074C82.7585 17.8494 82.4716 18.0483 82.2614 18.304C82.0511 18.554 81.946 18.8778 81.946 19.2756C81.946 19.8438 82.1534 20.2727 82.5682 20.5625C82.983 20.8523 83.5114 20.9972 84.1534 20.9972ZM96.4517 5.54545V23H93.3665V5.54545H96.4517ZM106.161 9.90909V12.2955H98.6357V9.90909H106.161ZM100.494 6.77273H103.579V19.0625C103.579 19.4773 103.641 19.7955 103.766 20.017C103.897 20.233 104.067 20.3807 104.278 20.4602C104.488 20.5398 104.721 20.5795 104.977 20.5795C105.17 20.5795 105.346 20.5653 105.505 20.5369C105.67 20.5085 105.795 20.483 105.88 20.4602L106.4 22.8722C106.235 22.929 105.999 22.9915 105.692 23.0597C105.391 23.1278 105.022 23.1676 104.585 23.179C103.812 23.2017 103.116 23.0852 102.496 22.8295C101.877 22.5682 101.386 22.1648 101.022 21.6193C100.664 21.0739 100.488 20.392 100.494 19.5739V6.77273ZM110.642 23.1875C110.125 23.1875 109.682 23.0057 109.312 22.642C108.943 22.2784 108.761 21.8352 108.767 21.3125C108.761 20.8011 108.943 20.3636 109.312 20C109.682 19.6364 110.125 19.4545 110.642 19.4545C111.142 19.4545 111.577 19.6364 111.946 20C112.321 20.3636 112.511 20.8011 112.517 21.3125C112.511 21.6591 112.42 21.9744 112.244 22.2585C112.074 22.5426 111.847 22.7699 111.562 22.9403C111.284 23.1051 110.977 23.1875 110.642 23.1875Z" fill="black"/>
<path d="M10.0897 11.0104L17 7.02073L23.9103 11.0104V18.9896L17 22.9793L10.0897 18.9896V11.0104Z" stroke="#000E8F" stroke-width="3.5"/>
</svg>
