<svg width="115" height="32" viewBox="0 0 115 32" fill="none" xmlns="http://www.w3.org/2000/svg">
<path d="M36.2266 21.0391L34.3047 18.8359L42.7305 10.3281L42.7539 10.3047L40.9492 10.1641V7.9375H48.4141V10.1641L46.8086 10.4922L36.2266 21.0391ZM31.5625 25V22.7852L33.3672 22.4219V10.5273L31.5625 10.1641V7.9375H38.793V10.1641L37.1172 10.5273V22.4219L38.793 22.7852V25H31.5625ZM41.3125 25V22.7852L42.9648 22.6445H42.9766L38.7578 16.8438L41.3125 14.4414L47.3242 22.4922L49.0352 22.7852V25H41.3125ZM55.6797 25.2461C54.3984 25.2461 53.3008 24.9766 52.3867 24.4375C51.4805 23.8906 50.7852 23.1328 50.3008 22.1641C49.8242 21.1875 49.5859 20.0586 49.5859 18.7773V18.543C49.5859 17.2773 49.8242 16.1602 50.3008 15.1914C50.7852 14.2227 51.4805 13.4648 52.3867 12.918C53.293 12.3633 54.3828 12.0859 55.6562 12.0859C56.9297 12.0859 58.0195 12.3594 58.9258 12.9062C59.832 13.4531 60.5234 14.2109 61 15.1797C61.4844 16.1484 61.7266 17.2695 61.7266 18.543V18.7773C61.7266 20.0508 61.4844 21.1758 61 22.1523C60.5234 23.1211 59.832 23.8789 58.9258 24.4258C58.0273 24.9727 56.9453 25.2461 55.6797 25.2461ZM55.6797 22.3867C56.2266 22.3867 56.668 22.2383 57.0039 21.9414C57.3477 21.6445 57.5977 21.2266 57.7539 20.6875C57.918 20.1484 58 19.5117 58 18.7773V18.543C58 17.832 57.918 17.2109 57.7539 16.6797C57.5977 16.1406 57.3477 15.7188 57.0039 15.4141C56.6602 15.1094 56.2109 14.957 55.6562 14.957C55.1094 14.957 54.6641 15.1094 54.3203 15.4141C53.9766 15.7188 53.7266 16.1406 53.5703 16.6797C53.4141 17.2109 53.3359 17.832 53.3359 18.543V18.7773C53.3359 19.5117 53.4141 20.1523 53.5703 20.6992C53.7266 21.2383 53.9766 21.6562 54.3203 21.9531C54.6641 22.2422 55.1172 22.3867 55.6797 22.3867ZM70.5273 25.2461C69.7539 25.2461 69.0977 25.0938 68.5586 24.7891C68.0195 24.4844 67.5664 24.043 67.1992 23.4648L66.9414 25H63.707V9.30859L61.9141 8.94531V6.71875H67.4453V13.6211C67.7969 13.1289 68.2344 12.75 68.7578 12.4844C69.2812 12.2188 69.8867 12.0859 70.5742 12.0859C71.5898 12.0859 72.4492 12.3594 73.1523 12.9062C73.8633 13.4453 74.4023 14.2148 74.7695 15.2148C75.1445 16.207 75.332 17.3789 75.332 18.7305V18.9766C75.332 20.2422 75.1445 21.3477 74.7695 22.293C74.4023 23.2305 73.8594 23.957 73.1406 24.4727C72.4297 24.9883 71.5586 25.2461 70.5273 25.2461ZM69.3555 22.3516C70.168 22.3516 70.7422 22.0664 71.0781 21.4961C71.4219 20.918 71.5938 20.0781 71.5938 18.9766V18.7305C71.5938 17.9414 71.5156 17.2695 71.3594 16.7148C71.2109 16.1602 70.9766 15.7344 70.6562 15.4375C70.3359 15.1328 69.918 14.9805 69.4023 14.9805C68.9492 14.9805 68.5547 15.0898 68.2188 15.3086C67.8906 15.5195 67.6328 15.8047 67.4453 16.1641V21.3672C67.6641 21.6953 67.9336 21.9414 68.2539 22.1055C68.5742 22.2695 68.9414 22.3516 69.3555 22.3516ZM81.1562 25.2461C79.9062 25.2461 78.9023 24.9062 78.1445 24.2266C77.3945 23.5391 77.0195 22.6133 77.0195 21.4492C77.0195 20.6602 77.2305 19.9609 77.6523 19.3516C78.082 18.7422 78.7227 18.2656 79.5742 17.9219C80.4258 17.5781 81.4844 17.4062 82.75 17.4062H84.2617V16.5625C84.2617 16 84.0977 15.5352 83.7695 15.168C83.4492 14.8008 82.957 14.6172 82.293 14.6172C81.9727 14.6172 81.6797 14.6562 81.4141 14.7344C81.1562 14.8125 80.918 14.9258 80.6992 15.0742L80.4297 16.7148H77.7578L77.7109 13.3164C78.3984 12.9648 79.1328 12.6719 79.9141 12.4375C80.6953 12.2031 81.5625 12.0859 82.5156 12.0859C84.2109 12.0859 85.5508 12.4766 86.5352 13.2578C87.5195 14.0391 88.0117 15.1523 88.0117 16.5977V21.5664C88.0117 21.7461 88.0117 21.9219 88.0117 22.0938C88.0195 22.2578 88.0391 22.418 88.0703 22.5742L89.4062 22.7852V25H84.9062C84.8125 24.8203 84.7148 24.6094 84.6133 24.3672C84.5117 24.125 84.4414 23.8828 84.4023 23.6406C84.0039 24.1328 83.5469 24.5234 83.0312 24.8125C82.5156 25.1016 81.8906 25.2461 81.1562 25.2461ZM82.2344 22.5391C82.625 22.5391 83.0039 22.4531 83.3711 22.2812C83.7383 22.1094 84.0352 21.875 84.2617 21.5781V19.6562H82.7734C82.1172 19.6562 81.6133 19.8047 81.2617 20.1016C80.918 20.3984 80.7461 20.7656 80.7461 21.2031C80.7461 21.625 80.8789 21.9531 81.1445 22.1875C81.418 22.4219 81.7812 22.5391 82.2344 22.5391ZM90.25 25V22.7852L91.832 22.4219V9.30859L90.0156 8.94531V6.71875H95.582V22.4219L97.1523 22.7852V25H90.25ZM103.258 25.2578C102.008 25.2578 101.051 24.9219 100.387 24.25C99.7227 23.5703 99.3906 22.4961 99.3906 21.0273V14.9336H97.7266V12.3203H99.3906V9.20312H103.117V12.3203H105.332V14.9336H103.117V21.0156C103.117 21.4688 103.215 21.793 103.41 21.9883C103.613 22.1758 103.887 22.2695 104.23 22.2695C104.402 22.2695 104.578 22.2578 104.758 22.2344C104.938 22.2109 105.102 22.1875 105.25 22.1641L105.531 24.918C105.18 25.0195 104.809 25.1016 104.418 25.1641C104.035 25.2266 103.648 25.2578 103.258 25.2578ZM107.465 23.2656C107.465 22.7344 107.652 22.2891 108.027 21.9297C108.41 21.5703 108.906 21.3906 109.516 21.3906C110.133 21.3906 110.625 21.5703 110.992 21.9297C111.367 22.2891 111.555 22.7344 111.555 23.2656C111.555 23.7891 111.367 24.2305 110.992 24.5898C110.625 24.9492 110.133 25.1289 109.516 25.1289C108.906 25.1289 108.41 24.9492 108.027 24.5898C107.652 24.2305 107.465 23.7891 107.465 23.2656Z" fill="#121A42"/>
<path d="M7 8H8C8.79565 8 9.55871 8.31607 10.1213 8.87868C10.6839 9.44129 11 10.2044 11 11C11 10.2044 11.3161 9.44129 11.8787 8.87868C12.4413 8.31607 13.2044 8 14 8H15" stroke="#1A56DB" stroke-width="2" stroke-linecap="round" stroke-linejoin="round"/>
<path d="M15 24H14C13.2044 24 12.4413 23.6839 11.8787 23.1213C11.3161 22.5587 11 21.7956 11 21C11 21.7956 10.6839 22.5587 10.1213 23.1213C9.55871 23.6839 8.79565 24 8 24H7" stroke="#1A56DB" stroke-width="2" stroke-linecap="round" stroke-linejoin="round"/>
<path d="M7 20H6C5.46957 20 4.96086 19.7893 4.58579 19.4142C4.21071 19.0391 4 18.5304 4 18V14C4 13.4696 4.21071 12.9609 4.58579 12.5858C4.96086 12.2107 5.46957 12 6 12H7" stroke="#6B7280" stroke-width="2" stroke-linecap="round" stroke-linejoin="round"/>
<path d="M15 12H22C22.5304 12 23.0391 12.2107 23.4142 12.5858C23.7893 12.9609 24 13.4696 24 14V18C24 18.5304 23.7893 19.0391 23.4142 19.4142C23.0391 19.7893 22.5304 20 22 20H15" stroke="#6B7280" stroke-width="2" stroke-linecap="round" stroke-linejoin="round"/>
<path d="M11 11V21" stroke="#1A56DB" stroke-width="2" stroke-linecap="round" stroke-linejoin="round"/>
</svg>
