<svg width="124" height="29" viewBox="0 0 124 29" fill="none" xmlns="http://www.w3.org/2000/svg">
<path d="M34.321 23V5.54545H38.5398V12.9261H38.7699L44.5398 5.54545H49.5085L43.321 13.3352L49.6193 23H44.5739L40.2273 16.1392L38.5398 18.2699V23H34.321ZM56.3224 23.2472C54.9474 23.2472 53.7656 22.9659 52.777 22.4034C51.794 21.8352 51.0355 21.0455 50.5014 20.0341C49.973 19.017 49.7088 17.8381 49.7088 16.4972C49.7088 15.1506 49.973 13.9716 50.5014 12.9602C51.0355 11.9432 51.794 11.1534 52.777 10.5909C53.7656 10.0227 54.9474 9.73864 56.3224 9.73864C57.6974 9.73864 58.8764 10.0227 59.8594 10.5909C60.848 11.1534 61.6065 11.9432 62.1349 12.9602C62.669 13.9716 62.9361 15.1506 62.9361 16.4972C62.9361 17.8381 62.669 19.017 62.1349 20.0341C61.6065 21.0455 60.848 21.8352 59.8594 22.4034C58.8764 22.9659 57.6974 23.2472 56.3224 23.2472ZM56.348 20.1023C56.848 20.1023 57.2713 19.9489 57.6179 19.642C57.9645 19.3352 58.2287 18.9091 58.4105 18.3636C58.598 17.8182 58.6918 17.1875 58.6918 16.4716C58.6918 15.7443 58.598 15.108 58.4105 14.5625C58.2287 14.017 57.9645 13.5909 57.6179 13.2841C57.2713 12.9773 56.848 12.8239 56.348 12.8239C55.831 12.8239 55.3935 12.9773 55.0355 13.2841C54.6832 13.5909 54.4134 14.017 54.2259 14.5625C54.044 15.108 53.9531 15.7443 53.9531 16.4716C53.9531 17.1875 54.044 17.8182 54.2259 18.3636C54.4134 18.9091 54.6832 19.3352 55.0355 19.642C55.3935 19.9489 55.831 20.1023 56.348 20.1023ZM65.071 23V5.54545H69.2386V12.1506H69.3239C69.4943 11.7528 69.7358 11.3693 70.0483 11C70.3665 10.6307 70.7699 10.3295 71.2585 10.0966C71.7528 9.85795 72.3438 9.73864 73.0312 9.73864C73.9403 9.73864 74.7898 9.97727 75.5795 10.4545C76.375 10.9318 77.017 11.6676 77.5057 12.6619C77.9943 13.6562 78.2386 14.9233 78.2386 16.4631C78.2386 17.946 78.0028 19.1875 77.5312 20.1875C77.0653 21.1875 76.4347 21.9375 75.6392 22.4375C74.8494 22.9375 73.9716 23.1875 73.0057 23.1875C72.3466 23.1875 71.7756 23.0795 71.2926 22.8636C70.8097 22.6477 70.4034 22.3636 70.0739 22.0114C69.75 21.6591 69.5 21.2812 69.3239 20.8778H69.196V23H65.071ZM69.1534 16.4545C69.1534 17.1591 69.2472 17.7727 69.4347 18.2955C69.6278 18.8182 69.9034 19.2244 70.2614 19.5142C70.625 19.7983 71.0597 19.9403 71.5653 19.9403C72.0767 19.9403 72.5114 19.7983 72.8693 19.5142C73.2273 19.2244 73.4972 18.8182 73.679 18.2955C73.8665 17.7727 73.9602 17.1591 73.9602 16.4545C73.9602 15.75 73.8665 15.1392 73.679 14.6222C73.4972 14.1051 73.2273 13.7045 72.8693 13.4205C72.517 13.1364 72.0824 12.9943 71.5653 12.9943C71.054 12.9943 70.6193 13.1335 70.2614 13.4119C69.9034 13.6903 69.6278 14.0881 69.4347 14.6051C69.2472 15.1222 69.1534 15.7386 69.1534 16.4545ZM84.1129 23.2216C83.2777 23.2216 82.5362 23.0824 81.8885 22.804C81.2464 22.5199 80.7379 22.0937 80.3629 21.5256C79.9936 20.9517 79.8089 20.233 79.8089 19.3693C79.8089 18.642 79.9368 18.0284 80.1925 17.5284C80.4482 17.0284 80.8004 16.6222 81.2493 16.3097C81.6982 15.9972 82.2152 15.7614 82.8004 15.6023C83.3857 15.4375 84.0107 15.3267 84.6754 15.2699C85.4197 15.2017 86.0192 15.1307 86.4737 15.0568C86.9283 14.9773 87.2578 14.8665 87.4624 14.7244C87.6726 14.5767 87.7777 14.3693 87.7777 14.1023V14.0597C87.7777 13.6222 87.6271 13.2841 87.326 13.0455C87.0249 12.8068 86.6186 12.6875 86.1072 12.6875C85.5561 12.6875 85.1129 12.8068 84.7777 13.0455C84.4425 13.2841 84.2294 13.6136 84.1385 14.0341L80.2947 13.8977C80.4084 13.1023 80.701 12.392 81.1726 11.767C81.6499 11.1364 82.3033 10.642 83.1328 10.2841C83.968 9.92045 84.9709 9.73864 86.1413 9.73864C86.9766 9.73864 87.7464 9.83807 88.451 10.0369C89.1555 10.2301 89.7692 10.5142 90.2919 10.8892C90.8146 11.2585 91.218 11.7131 91.5021 12.2528C91.7919 12.7926 91.9368 13.4091 91.9368 14.1023V23H88.0163V21.1761H87.9141C87.6811 21.6193 87.3828 21.9943 87.0192 22.3011C86.6612 22.608 86.2379 22.8381 85.7493 22.9915C85.2663 23.1449 84.7209 23.2216 84.1129 23.2216ZM85.3999 20.4943C85.8487 20.4943 86.2521 20.4034 86.6101 20.2216C86.9737 20.0398 87.2635 19.7898 87.4794 19.4716C87.6953 19.1477 87.8033 18.7727 87.8033 18.3466V17.1023C87.6839 17.1648 87.5391 17.2216 87.3686 17.2727C87.2038 17.3239 87.022 17.3722 86.8232 17.4176C86.6243 17.4631 86.4197 17.5028 86.2095 17.5369C85.9993 17.571 85.7976 17.6023 85.6044 17.6307C85.2124 17.6932 84.8771 17.7898 84.5987 17.9205C84.326 18.0511 84.1158 18.2216 83.968 18.4318C83.826 18.6364 83.755 18.8807 83.755 19.1648C83.755 19.5966 83.9084 19.9261 84.2152 20.1534C84.5277 20.3807 84.9226 20.4943 85.3999 20.4943ZM98.6527 5.54545V23H94.4851V5.54545H98.6527ZM108.695 9.90909V12.9773H100.436V9.90909H108.695ZM102.166 6.77273H106.334V18.8835C106.334 19.1392 106.374 19.3466 106.453 19.5057C106.538 19.6591 106.661 19.7699 106.82 19.8381C106.979 19.9006 107.169 19.9318 107.391 19.9318C107.55 19.9318 107.717 19.9176 107.893 19.8892C108.075 19.8551 108.212 19.8267 108.303 19.804L108.933 22.8125C108.734 22.8693 108.453 22.9403 108.089 23.0256C107.732 23.1108 107.303 23.1648 106.803 23.1875C105.825 23.233 104.987 23.1193 104.288 22.8466C103.595 22.5682 103.064 22.1364 102.695 21.5511C102.331 20.9659 102.155 20.2301 102.166 19.3438V6.77273ZM113.165 23.2472C112.551 23.2472 112.026 23.0312 111.588 22.5994C111.156 22.1676 110.943 21.6449 110.949 21.0312C110.943 20.429 111.156 19.9148 111.588 19.4886C112.026 19.0568 112.551 18.8409 113.165 18.8409C113.744 18.8409 114.256 19.0568 114.699 19.4886C115.148 19.9148 115.375 20.429 115.381 21.0312C115.375 21.4403 115.267 21.8125 115.057 22.1477C114.852 22.483 114.582 22.75 114.247 22.9489C113.918 23.1477 113.557 23.2472 113.165 23.2472Z" fill="black"/>
<path d="M11.2058 11.6547L17 8.3094L22.7942 11.6547V18.3453L17 21.6906L11.2058 18.3453V11.6547Z" stroke="#000E8F" stroke-width="4"/>
</svg>
