<svg width="128" height="32" viewBox="0 0 128 32" fill="none" xmlns="http://www.w3.org/2000/svg">
<path d="M45.2266 21.0391L43.3047 18.8359L51.7305 10.3281L51.7539 10.3047L49.9492 10.1641V7.9375H57.4141V10.1641L55.8086 10.4922L45.2266 21.0391ZM40.5625 25V22.7852L42.3672 22.4219V10.5273L40.5625 10.1641V7.9375H47.793V10.1641L46.1172 10.5273V22.4219L47.793 22.7852V25H40.5625ZM50.3125 25V22.7852L51.9648 22.6445H51.9766L47.7578 16.8438L50.3125 14.4414L56.3242 22.4922L58.0352 22.7852V25H50.3125ZM64.6797 25.2461C63.3984 25.2461 62.3008 24.9766 61.3867 24.4375C60.4805 23.8906 59.7852 23.1328 59.3008 22.1641C58.8242 21.1875 58.5859 20.0586 58.5859 18.7773V18.543C58.5859 17.2773 58.8242 16.1602 59.3008 15.1914C59.7852 14.2227 60.4805 13.4648 61.3867 12.918C62.293 12.3633 63.3828 12.0859 64.6562 12.0859C65.9297 12.0859 67.0195 12.3594 67.9258 12.9062C68.832 13.4531 69.5234 14.2109 70 15.1797C70.4844 16.1484 70.7266 17.2695 70.7266 18.543V18.7773C70.7266 20.0508 70.4844 21.1758 70 22.1523C69.5234 23.1211 68.832 23.8789 67.9258 24.4258C67.0273 24.9727 65.9453 25.2461 64.6797 25.2461ZM64.6797 22.3867C65.2266 22.3867 65.668 22.2383 66.0039 21.9414C66.3477 21.6445 66.5977 21.2266 66.7539 20.6875C66.918 20.1484 67 19.5117 67 18.7773V18.543C67 17.832 66.918 17.2109 66.7539 16.6797C66.5977 16.1406 66.3477 15.7188 66.0039 15.4141C65.6602 15.1094 65.2109 14.957 64.6562 14.957C64.1094 14.957 63.6641 15.1094 63.3203 15.4141C62.9766 15.7188 62.7266 16.1406 62.5703 16.6797C62.4141 17.2109 62.3359 17.832 62.3359 18.543V18.7773C62.3359 19.5117 62.4141 20.1523 62.5703 20.6992C62.7266 21.2383 62.9766 21.6562 63.3203 21.9531C63.6641 22.2422 64.1172 22.3867 64.6797 22.3867ZM79.5273 25.2461C78.7539 25.2461 78.0977 25.0938 77.5586 24.7891C77.0195 24.4844 76.5664 24.043 76.1992 23.4648L75.9414 25H72.707V9.30859L70.9141 8.94531V6.71875H76.4453V13.6211C76.7969 13.1289 77.2344 12.75 77.7578 12.4844C78.2812 12.2188 78.8867 12.0859 79.5742 12.0859C80.5898 12.0859 81.4492 12.3594 82.1523 12.9062C82.8633 13.4453 83.4023 14.2148 83.7695 15.2148C84.1445 16.207 84.332 17.3789 84.332 18.7305V18.9766C84.332 20.2422 84.1445 21.3477 83.7695 22.293C83.4023 23.2305 82.8594 23.957 82.1406 24.4727C81.4297 24.9883 80.5586 25.2461 79.5273 25.2461ZM78.3555 22.3516C79.168 22.3516 79.7422 22.0664 80.0781 21.4961C80.4219 20.918 80.5938 20.0781 80.5938 18.9766V18.7305C80.5938 17.9414 80.5156 17.2695 80.3594 16.7148C80.2109 16.1602 79.9766 15.7344 79.6562 15.4375C79.3359 15.1328 78.918 14.9805 78.4023 14.9805C77.9492 14.9805 77.5547 15.0898 77.2188 15.3086C76.8906 15.5195 76.6328 15.8047 76.4453 16.1641V21.3672C76.6641 21.6953 76.9336 21.9414 77.2539 22.1055C77.5742 22.2695 77.9414 22.3516 78.3555 22.3516ZM90.1562 25.2461C88.9062 25.2461 87.9023 24.9062 87.1445 24.2266C86.3945 23.5391 86.0195 22.6133 86.0195 21.4492C86.0195 20.6602 86.2305 19.9609 86.6523 19.3516C87.082 18.7422 87.7227 18.2656 88.5742 17.9219C89.4258 17.5781 90.4844 17.4062 91.75 17.4062H93.2617V16.5625C93.2617 16 93.0977 15.5352 92.7695 15.168C92.4492 14.8008 91.957 14.6172 91.293 14.6172C90.9727 14.6172 90.6797 14.6562 90.4141 14.7344C90.1562 14.8125 89.918 14.9258 89.6992 15.0742L89.4297 16.7148H86.7578L86.7109 13.3164C87.3984 12.9648 88.1328 12.6719 88.9141 12.4375C89.6953 12.2031 90.5625 12.0859 91.5156 12.0859C93.2109 12.0859 94.5508 12.4766 95.5352 13.2578C96.5195 14.0391 97.0117 15.1523 97.0117 16.5977V21.5664C97.0117 21.7461 97.0117 21.9219 97.0117 22.0938C97.0195 22.2578 97.0391 22.418 97.0703 22.5742L98.4062 22.7852V25H93.9062C93.8125 24.8203 93.7148 24.6094 93.6133 24.3672C93.5117 24.125 93.4414 23.8828 93.4023 23.6406C93.0039 24.1328 92.5469 24.5234 92.0312 24.8125C91.5156 25.1016 90.8906 25.2461 90.1562 25.2461ZM91.2344 22.5391C91.625 22.5391 92.0039 22.4531 92.3711 22.2812C92.7383 22.1094 93.0352 21.875 93.2617 21.5781V19.6562H91.7734C91.1172 19.6562 90.6133 19.8047 90.2617 20.1016C89.918 20.3984 89.7461 20.7656 89.7461 21.2031C89.7461 21.625 89.8789 21.9531 90.1445 22.1875C90.418 22.4219 90.7812 22.5391 91.2344 22.5391ZM99.25 25V22.7852L100.832 22.4219V9.30859L99.0156 8.94531V6.71875H104.582V22.4219L106.152 22.7852V25H99.25ZM112.258 25.2578C111.008 25.2578 110.051 24.9219 109.387 24.25C108.723 23.5703 108.391 22.4961 108.391 21.0273V14.9336H106.727V12.3203H108.391V9.20312H112.117V12.3203H114.332V14.9336H112.117V21.0156C112.117 21.4688 112.215 21.793 112.41 21.9883C112.613 22.1758 112.887 22.2695 113.23 22.2695C113.402 22.2695 113.578 22.2578 113.758 22.2344C113.938 22.2109 114.102 22.1875 114.25 22.1641L114.531 24.918C114.18 25.0195 113.809 25.1016 113.418 25.1641C113.035 25.2266 112.648 25.2578 112.258 25.2578ZM116.465 23.2656C116.465 22.7344 116.652 22.2891 117.027 21.9297C117.41 21.5703 117.906 21.3906 118.516 21.3906C119.133 21.3906 119.625 21.5703 119.992 21.9297C120.367 22.2891 120.555 22.7344 120.555 23.2656C120.555 23.7891 120.367 24.2305 119.992 24.5898C119.625 24.9492 119.133 25.1289 118.516 25.1289C117.906 25.1289 117.41 24.9492 117.027 24.5898C116.652 24.2305 116.465 23.7891 116.465 23.2656Z" fill="#121A42"/>
<path d="M10.416 7.3335H11.4993C12.3613 7.3335 13.188 7.67591 13.7974 8.2854C14.4069 8.89489 14.7493 9.72154 14.7493 10.5835C14.7493 9.72154 15.0918 8.89489 15.7013 8.2854C16.3107 7.67591 17.1374 7.3335 17.9993 7.3335H19.0827" stroke="#1A56DB" stroke-width="2.25" stroke-linecap="round" stroke-linejoin="round"/>
<path d="M19.0827 24.6665H17.9993C17.1374 24.6665 16.3107 24.3241 15.7013 23.7146C15.0918 23.1051 14.7493 22.2785 14.7493 21.4165C14.7493 22.2785 14.4069 23.1051 13.7974 23.7146C13.188 24.3241 12.3613 24.6665 11.4993 24.6665H10.416" stroke="#1A56DB" stroke-width="2.25" stroke-linecap="round" stroke-linejoin="round"/>
<path d="M10.416 20.3332H9.33268C8.75805 20.3332 8.20695 20.1049 7.80062 19.6986C7.39429 19.2922 7.16602 18.7411 7.16602 18.1665V13.8332C7.16602 13.2585 7.39429 12.7074 7.80062 12.3011C8.20695 11.8948 8.75805 11.6665 9.33268 11.6665H10.416" stroke="#6B7280" stroke-width="2.25" stroke-linecap="round" stroke-linejoin="round"/>
<path d="M19.084 11.6665H26.6673C27.242 11.6665 27.7931 11.8948 28.1994 12.3011C28.6057 12.7074 28.834 13.2585 28.834 13.8332V18.1665C28.834 18.7411 28.6057 19.2922 28.1994 19.6986C27.7931 20.1049 27.242 20.3332 26.6673 20.3332H19.084" stroke="#6B7280" stroke-width="2.25" stroke-linecap="round" stroke-linejoin="round"/>
<path d="M14.75 10.5835V21.4168" stroke="#1A56DB" stroke-width="2.25" stroke-linecap="round" stroke-linejoin="round"/>
</svg>
