<svg width="124" height="29" viewBox="0 0 124 29" fill="none" xmlns="http://www.w3.org/2000/svg">
<path d="M34.517 23V5.54545H38.2074V13.2415H38.4375L44.7188 5.54545H49.142L42.6648 13.3608L49.2188 23H44.804L40.0227 15.8239L38.2074 18.0398V23H34.517ZM55.9496 23.2557C54.6257 23.2557 53.4808 22.9744 52.5149 22.4119C51.5547 21.8437 50.8132 21.054 50.2905 20.0426C49.7678 19.0256 49.5064 17.8466 49.5064 16.5057C49.5064 15.1534 49.7678 13.9716 50.2905 12.9602C50.8132 11.9432 51.5547 11.1534 52.5149 10.5909C53.4808 10.0227 54.6257 9.73864 55.9496 9.73864C57.2734 9.73864 58.4155 10.0227 59.3757 10.5909C60.3416 11.1534 61.0859 11.9432 61.6087 12.9602C62.1314 13.9716 62.3928 15.1534 62.3928 16.5057C62.3928 17.8466 62.1314 19.0256 61.6087 20.0426C61.0859 21.054 60.3416 21.8437 59.3757 22.4119C58.4155 22.9744 57.2734 23.2557 55.9496 23.2557ZM55.9666 20.4432C56.5689 20.4432 57.0717 20.2727 57.4751 19.9318C57.8786 19.5852 58.1825 19.1136 58.3871 18.517C58.5973 17.9205 58.7024 17.2415 58.7024 16.4801C58.7024 15.7188 58.5973 15.0398 58.3871 14.4432C58.1825 13.8466 57.8786 13.375 57.4751 13.0284C57.0717 12.6818 56.5689 12.5085 55.9666 12.5085C55.3587 12.5085 54.8473 12.6818 54.4325 13.0284C54.0234 13.375 53.7138 13.8466 53.5036 14.4432C53.299 15.0398 53.1967 15.7188 53.1967 16.4801C53.1967 17.2415 53.299 17.9205 53.5036 18.517C53.7138 19.1136 54.0234 19.5852 54.4325 19.9318C54.8473 20.2727 55.3587 20.4432 55.9666 20.4432ZM64.8217 23V5.54545H68.4524V12.108H68.5632C68.7223 11.7557 68.9524 11.3977 69.2536 11.0341C69.5604 10.6648 69.9581 10.358 70.4467 10.1136C70.9411 9.86364 71.5547 9.73864 72.2876 9.73864C73.2422 9.73864 74.1229 9.98864 74.9297 10.4886C75.7365 10.983 76.3814 11.7301 76.8643 12.7301C77.3473 13.7244 77.5888 14.9716 77.5888 16.4716C77.5888 17.9318 77.353 19.1648 76.8814 20.1705C76.4155 21.1705 75.7791 21.929 74.9723 22.446C74.1712 22.9574 73.2734 23.2131 72.2791 23.2131C71.5746 23.2131 70.9751 23.0966 70.4808 22.8636C69.9922 22.6307 69.5916 22.3381 69.2791 21.9858C68.9666 21.6278 68.728 21.267 68.5632 20.9034H68.4013V23H64.8217ZM68.3757 16.4545C68.3757 17.233 68.4837 17.9119 68.6996 18.4915C68.9155 19.071 69.228 19.5227 69.6371 19.8466C70.0462 20.1648 70.5433 20.3239 71.1286 20.3239C71.7195 20.3239 72.2195 20.1619 72.6286 19.8381C73.0376 19.5085 73.3473 19.054 73.5575 18.4744C73.7734 17.8892 73.8814 17.2159 73.8814 16.4545C73.8814 15.6989 73.7763 15.0341 73.5661 14.4602C73.3558 13.8864 73.0462 13.4375 72.6371 13.1136C72.228 12.7898 71.7251 12.6278 71.1286 12.6278C70.5376 12.6278 70.0376 12.7841 69.6286 13.0966C69.2251 13.4091 68.9155 13.8523 68.6996 14.4261C68.4837 15 68.3757 15.6761 68.3757 16.4545ZM83.7443 23.2472C82.9091 23.2472 82.1648 23.1023 81.5114 22.8125C80.858 22.517 80.3409 22.0824 79.9602 21.5085C79.5852 20.929 79.3977 20.2074 79.3977 19.3438C79.3977 18.6165 79.5313 18.0057 79.7983 17.5114C80.0653 17.017 80.429 16.6193 80.8892 16.3182C81.3494 16.017 81.8722 15.7898 82.4574 15.6364C83.0483 15.483 83.6676 15.375 84.3153 15.3125C85.0767 15.233 85.6903 15.1591 86.1562 15.0909C86.6222 15.017 86.9602 14.9091 87.1705 14.767C87.3807 14.625 87.4858 14.4148 87.4858 14.1364V14.0852C87.4858 13.5455 87.3153 13.1278 86.9744 12.8324C86.6392 12.5369 86.1619 12.3892 85.5426 12.3892C84.8892 12.3892 84.3693 12.5341 83.983 12.8239C83.5966 13.108 83.3409 13.4659 83.2159 13.8977L79.858 13.625C80.0284 12.8295 80.3636 12.142 80.8636 11.5625C81.3636 10.9773 82.0085 10.5284 82.7983 10.2159C83.5938 9.89773 84.5142 9.73864 85.5597 9.73864C86.2869 9.73864 86.983 9.82386 87.6477 9.99432C88.3182 10.1648 88.9119 10.429 89.429 10.7869C89.9517 11.1449 90.3636 11.6051 90.6648 12.1676C90.9659 12.7244 91.1165 13.392 91.1165 14.1705V23H87.6733V21.1847H87.571C87.3608 21.5938 87.0795 21.9545 86.7273 22.267C86.375 22.5739 85.9517 22.8153 85.4574 22.9915C84.9631 23.1619 84.392 23.2472 83.7443 23.2472ZM84.7841 20.7415C85.3182 20.7415 85.7898 20.6364 86.1989 20.4261C86.608 20.2102 86.929 19.9205 87.1619 19.5568C87.3949 19.1932 87.5114 18.7812 87.5114 18.321V16.9318C87.3977 17.0057 87.2415 17.0739 87.0426 17.1364C86.8494 17.1932 86.6307 17.2472 86.3864 17.2983C86.142 17.3437 85.8977 17.3864 85.6534 17.4261C85.4091 17.4602 85.1875 17.4915 84.9886 17.5199C84.5625 17.5824 84.1903 17.6818 83.8722 17.8182C83.554 17.9545 83.3068 18.1392 83.1307 18.3722C82.9545 18.5994 82.8665 18.8835 82.8665 19.2244C82.8665 19.7188 83.0455 20.0966 83.4034 20.358C83.767 20.6136 84.2273 20.7415 84.7841 20.7415ZM97.5639 5.54545V23H93.9332V5.54545H97.5639ZM107.435 9.90909V12.6364H99.5518V9.90909H107.435ZM101.342 6.77273H104.972V18.9773C104.972 19.3125 105.023 19.5739 105.126 19.7614C105.228 19.9432 105.37 20.071 105.552 20.1449C105.739 20.2187 105.955 20.2557 106.2 20.2557C106.37 20.2557 106.54 20.2415 106.711 20.2131C106.881 20.179 107.012 20.1534 107.103 20.1364L107.674 22.8381C107.492 22.8949 107.237 22.9602 106.907 23.0341C106.577 23.1136 106.177 23.1619 105.705 23.179C104.83 23.2131 104.063 23.0966 103.404 22.8295C102.751 22.5625 102.242 22.1477 101.879 21.5852C101.515 21.0227 101.336 20.3125 101.342 19.4545V6.77273ZM111.923 23.2216C111.36 23.2216 110.877 23.0227 110.474 22.625C110.076 22.2216 109.877 21.7386 109.877 21.1761C109.877 20.6193 110.076 20.142 110.474 19.7443C110.877 19.3466 111.36 19.1477 111.923 19.1477C112.468 19.1477 112.945 19.3466 113.354 19.7443C113.763 20.142 113.968 20.6193 113.968 21.1761C113.968 21.5511 113.871 21.8949 113.678 22.2074C113.491 22.5142 113.244 22.7614 112.937 22.9489C112.63 23.1307 112.292 23.2216 111.923 23.2216Z" fill="black"/>
<path d="M11.2058 11.6547L17 8.3094L22.7942 11.6547V18.3453L17 21.6906L11.2058 18.3453V11.6547Z" stroke="#000E8F" stroke-width="4"/>
</svg>
