<?xml version="1.0" standalone="no"?>
<!DOCTYPE svg PUBLIC "-//W3C//DTD SVG 20010904//EN"
 "http://www.w3.org/TR/2001/REC-SVG-20010904/DTD/svg10.dtd">
<svg version="1.0" xmlns="http://www.w3.org/2000/svg"
 width="700.000000pt" height="700.000000pt" viewBox="0 0 700.000000 700.000000"
 preserveAspectRatio="xMidYMid meet">
<metadata>
Created by potrace 1.14, written by Peter Selinger 2001-2017
</metadata>
<g transform="translate(0.000000,700.000000) scale(0.100000,-0.100000)"
fill="#000000" stroke="none">
<path d="M1117 6414 c-1 -1 -20 -4 -42 -7 -113 -15 -236 -77 -315 -158 -83
-86 -122 -151 -158 -268 -15 -51 -16 -151 -17 -1171 l0 -1115 23 -70 c34 -101
77 -171 151 -246 77 -77 197 -141 299 -159 80 -14 1603 -15 1678 -1 221 42
411 228 458 451 20 94 22 2185 2 2275 -23 104 -49 160 -110 241 -72 97 -170
165 -293 205 -68 22 -69 22 -871 24 -441 1 -803 1 -805 -1z"/>
<path d="M4317 6414 c-1 -1 -21 -4 -45 -8 -89 -12 -209 -72 -298 -148 -74 -64
-151 -208 -173 -324 -12 -64 -11 -1048 1 -1089 3 -11 9 -33 13 -50 11 -42 61
-143 93 -185 80 -106 191 -180 323 -216 58 -16 134 -17 854 -18 435 0 810 3
835 7 231 32 426 214 486 457 4 14 8 257 9 540 2 546 0 571 -47 683 -21 51
-122 197 -136 197 -4 0 -20 13 -37 28 -39 37 -205 123 -205 107 0 -3 -12 1
-27 7 -20 9 -249 12 -836 13 -444 1 -808 1 -810 -1z"/>
<path d="M4218 3770 c-206 -59 -367 -231 -412 -440 -22 -99 -22 -2184 -1
-2283 50 -232 247 -421 475 -455 25 -4 407 -7 850 -6 l805 0 78 27 c98 34 172
81 243 154 65 68 129 189 147 282 11 51 13 296 12 1155 -1 600 -5 1100 -8
1111 -2 11 -10 40 -17 64 -21 79 -73 164 -145 237 -74 75 -126 108 -227 146
l-63 23 -835 2 c-794 1 -838 1 -902 -17z"/>
<path d="M1120 2622 c-261 -26 -470 -211 -523 -463 -11 -50 -13 -179 -12 -579
2 -561 2 -555 62 -675 74 -146 204 -252 368 -301 56 -17 118 -18 860 -18 440
0 820 2 845 6 56 8 76 14 162 52 44 19 144 94 176 131 67 78 124 194 140 288
4 23 7 278 7 567 l0 525 -27 71 c-72 195 -214 327 -409 380 -58 16 -137 17
-844 18 -429 1 -791 0 -805 -2z"/>
</g>
</svg>
