<?xml version="1.0" standalone="no"?>
<!DOCTYPE svg PUBLIC "-//W3C//DTD SVG 20010904//EN"
 "http://www.w3.org/TR/2001/REC-SVG-20010904/DTD/svg10.dtd">
<svg version="1.0" xmlns="http://www.w3.org/2000/svg"
 width="700.000000pt" height="700.000000pt" viewBox="0 0 700.000000 700.000000"
 preserveAspectRatio="xMidYMid meet">
<metadata>
Created by potrace 1.14, written by Peter Selinger 2001-2017
</metadata>
<g transform="translate(0.000000,700.000000) scale(0.100000,-0.100000)"
fill="#000000" stroke="none">
<path d="M1370 6679 c-102 -13 -187 -38 -289 -85 -261 -122 -440 -342 -515
-630 -20 -75 -466 -4574 -466 -4693 1 -442 344 -843 782 -911 53 -8 703 -10
2428 -8 l2355 3 75 23 c330 102 579 357 659 677 22 86 471 4574 471 4703 0
214 -94 452 -243 617 -82 91 -173 158 -292 215 -116 55 -185 75 -310 90 -109
12 -4556 12 -4655 -1z m1495 -1711 c-7 -31 -205 -1238 -205 -1249 0 -42 89 42
667 631 l628 640 370 0 370 0 -220 -222 c-121 -123 -412 -416 -647 -653 l-426
-430 409 -799 c225 -440 409 -803 409 -808 0 -4 -165 -8 -366 -8 l-366 0 -295
598 c-163 328 -297 599 -299 601 -1 1 -85 -81 -186 -184 l-183 -187 -70 -412
-70 -411 -307 -3 c-248 -2 -308 0 -308 11 0 7 108 662 240 1456 132 793 240
1445 240 1447 0 2 140 4 310 4 l310 0 -5 -22z m2233 -2289 c122 -61 178 -159
170 -298 -6 -100 -33 -158 -114 -237 -78 -77 -144 -105 -251 -105 -122 0 -221
58 -278 163 -23 42 -30 68 -33 133 -5 103 21 178 87 248 86 93 159 125 282
126 65 1 84 -3 137 -30z"/>
</g>
</svg>
