<svg width="800" height="160" viewBox="0 0 800 160" fill="none" xmlns="http://www.w3.org/2000/svg">
<path d="M213.12 126.652C206.293 126.652 199.723 125.735 193.408 123.9C187.093 122.065 181.845 119.527 177.664 116.284L184.064 102.076C192.768 108.135 202.539 111.164 213.376 111.164C219.008 111.164 223.339 110.247 226.368 108.412C229.397 106.577 230.912 104.039 230.912 100.796C230.912 97.8946 229.525 95.6332 226.752 94.0119C223.979 92.3906 219.051 90.8119 211.968 89.2759C204.032 87.6546 197.696 85.6919 192.96 83.3879C188.224 81.0839 184.768 78.2466 182.592 74.8759C180.416 71.5052 179.328 67.3453 179.328 62.3959C179.328 56.9346 180.843 52.0706 183.872 47.8039C186.901 43.5372 191.147 40.1879 196.608 37.7559C202.069 35.3239 208.384 34.1079 215.552 34.1079C221.952 34.1079 228.117 35.0466 234.048 36.9239C239.979 38.8013 244.693 41.3186 248.192 44.4759L241.792 58.6839C233.515 52.6252 224.811 49.5959 215.68 49.5959C210.475 49.5959 206.379 50.5986 203.392 52.6039C200.405 54.6093 198.912 57.3612 198.912 60.8599C198.912 62.9079 199.488 64.5932 200.64 65.9159C201.792 67.2386 203.712 68.4119 206.4 69.4359C209.088 70.4599 212.907 71.5266 217.856 72.6359C229.461 75.1959 237.803 78.4812 242.88 82.4919C247.957 86.5026 250.496 92.0492 250.496 99.1319C250.496 107.665 247.211 114.385 240.64 119.292C234.069 124.199 224.896 126.652 213.12 126.652ZM296.832 112.316C298.795 112.316 300.843 112.188 302.976 111.932L301.952 126.012C299.477 126.353 297.003 126.524 294.528 126.524C284.971 126.524 277.995 124.433 273.6 120.252C269.205 116.071 267.008 109.713 267.008 101.18V77.1159H255.104V62.6519H267.008V44.2199H286.336V62.6519H302.08V77.1159H286.336V101.052C286.336 108.561 289.835 112.316 296.832 112.316ZM341.76 126.524C335.104 126.524 329.259 125.18 324.224 122.492C319.189 119.804 315.307 116.007 312.576 111.1C309.845 106.193 308.48 100.412 308.48 93.7559C308.48 87.0999 309.845 81.3186 312.576 76.4119C315.307 71.5052 319.189 67.7293 324.224 65.0839C329.259 62.4386 335.104 61.1159 341.76 61.1159C348.416 61.1159 354.261 62.4386 359.296 65.0839C364.331 67.7293 368.213 71.5052 370.944 76.4119C373.675 81.3186 375.04 87.0999 375.04 93.7559C375.04 100.412 373.675 106.193 370.944 111.1C368.213 116.007 364.331 119.804 359.296 122.492C354.261 125.18 348.416 126.524 341.76 126.524ZM341.76 111.804C351.147 111.804 355.84 105.788 355.84 93.7559C355.84 87.6972 354.624 83.1746 352.192 80.1879C349.76 77.2012 346.283 75.7079 341.76 75.7079C332.373 75.7079 327.68 81.7239 327.68 93.7559C327.68 105.788 332.373 111.804 341.76 111.804ZM428.544 76.9879L417.664 78.1399C412.288 78.6519 408.491 80.1666 406.272 82.6839C404.053 85.2013 402.944 88.5506 402.944 92.7319V125.5H383.616V62.6519H402.176V73.2759C405.333 66.0225 411.861 62.0546 421.76 61.3719L427.392 60.9879L428.544 76.9879ZM484.704 62.7799H503.648L465.76 148.54H446.176L458.208 122.044L432.352 62.7799H452.448L468.32 102.716L484.704 62.7799ZM548.448 61.1159C553.909 61.1159 558.731 62.4386 562.912 65.0839C567.093 67.7293 570.357 71.5052 572.704 76.4119C575.051 81.3186 576.224 87.0145 576.224 93.4999C576.224 99.9853 575.051 105.724 572.704 110.716C570.357 115.708 567.072 119.591 562.848 122.364C558.624 125.137 553.824 126.524 548.448 126.524C544.096 126.524 540.171 125.607 536.672 123.772C533.173 121.937 530.485 119.399 528.608 116.156V125.5H509.536V35.2599H528.864V71.0999C530.741 67.9426 533.408 65.4892 536.864 63.7399C540.32 61.9906 544.181 61.1159 548.448 61.1159ZM542.816 111.804C547.339 111.804 550.837 110.204 553.312 107.004C555.787 103.804 557.024 99.3026 557.024 93.4999C557.024 87.7825 555.787 83.4093 553.312 80.3799C550.837 77.3506 547.339 75.8359 542.816 75.8359C538.293 75.8359 534.795 77.3932 532.32 80.5079C529.845 83.6226 528.608 88.0385 528.608 93.7559C528.608 99.5586 529.845 104.017 532.32 107.132C534.795 110.247 538.293 111.804 542.816 111.804ZM618.208 126.524C611.552 126.524 605.707 125.18 600.672 122.492C595.637 119.804 591.755 116.007 589.024 111.1C586.293 106.193 584.928 100.412 584.928 93.7559C584.928 87.0999 586.293 81.3186 589.024 76.4119C591.755 71.5052 595.637 67.7293 600.672 65.0839C605.707 62.4386 611.552 61.1159 618.208 61.1159C624.864 61.1159 630.709 62.4386 635.744 65.0839C640.779 67.7293 644.661 71.5052 647.392 76.4119C650.123 81.3186 651.488 87.0999 651.488 93.7559C651.488 100.412 650.123 106.193 647.392 111.1C644.661 116.007 640.779 119.804 635.744 122.492C630.709 125.18 624.864 126.524 618.208 126.524ZM618.208 111.804C627.595 111.804 632.288 105.788 632.288 93.7559C632.288 87.6972 631.072 83.1746 628.64 80.1879C626.208 77.2012 622.731 75.7079 618.208 75.7079C608.821 75.7079 604.128 81.7239 604.128 93.7559C604.128 105.788 608.821 111.804 618.208 111.804ZM690.272 126.524C683.616 126.524 677.771 125.18 672.736 122.492C667.701 119.804 663.819 116.007 661.088 111.1C658.357 106.193 656.992 100.412 656.992 93.7559C656.992 87.0999 658.357 81.3186 661.088 76.4119C663.819 71.5052 667.701 67.7293 672.736 65.0839C677.771 62.4386 683.616 61.1159 690.272 61.1159C696.928 61.1159 702.773 62.4386 707.808 65.0839C712.843 67.7293 716.725 71.5052 719.456 76.4119C722.187 81.3186 723.552 87.0999 723.552 93.7559C723.552 100.412 722.187 106.193 719.456 111.1C716.725 116.007 712.843 119.804 707.808 122.492C702.773 125.18 696.928 126.524 690.272 126.524ZM690.272 111.804C699.659 111.804 704.352 105.788 704.352 93.7559C704.352 87.6972 703.136 83.1746 700.704 80.1879C698.272 77.2012 694.795 75.7079 690.272 75.7079C680.885 75.7079 676.192 81.7239 676.192 93.7559C676.192 105.788 680.885 111.804 690.272 111.804ZM800 125.5H776.32L752.256 97.4679V125.5H732.928V35.2599H752.256V89.5319L775.424 62.7799H798.464L772.096 92.7319L800 125.5Z" fill="#333333"/>
<path d="M4.96223 147.435L0.00576076 15.3671C-0.157932 11.0055 3.18644 7.309 7.54269 7.03673L119.875 0.0159388C124.31 -0.261195 128.129 3.10872 128.406 7.54286C128.416 7.70992 128.422 7.87727 128.422 8.04465V151.956C128.422 156.398 124.82 160 120.377 160C120.257 160 120.137 159.997 120.016 159.992L12.64 155.169C8.45814 154.981 5.11923 151.618 4.96223 147.435Z" fill="#FF4785"/>
<mask id="mask0_817_151" style="mask-type:luminance" maskUnits="userSpaceOnUse" x="0" y="0" width="129" height="160">
<path d="M4.96223 147.435L0.00576076 15.3671C-0.157932 11.0055 3.18644 7.309 7.54269 7.03673L119.875 0.0159388C124.31 -0.261195 128.129 3.10872 128.406 7.54286C128.416 7.70992 128.422 7.87727 128.422 8.04465V151.956C128.422 156.398 124.82 160 120.377 160C120.257 160 120.137 159.997 120.016 159.992L12.64 155.169C8.45814 154.981 5.11923 151.618 4.96223 147.435Z" fill="white"/>
</mask>
<g mask="url(#mask0_817_151)">
<path d="M94.8298 19.6665L95.5971 1.21209L111.024 0L111.688 19.0314C111.711 19.6938 111.193 20.2495 110.531 20.2726C110.247 20.2825 109.969 20.1916 109.746 20.016L103.797 15.3295L96.754 20.6725C96.226 21.073 95.4732 20.9696 95.0727 20.4416C94.9041 20.2194 94.8182 19.9453 94.8298 19.6665ZM75.1006 60.3062C75.1006 63.4359 96.182 61.9359 99.012 59.7375C99.012 38.4248 87.5761 27.2252 66.635 27.2252C45.6939 27.2252 33.961 38.599 33.961 55.6597C33.961 85.3736 74.0609 85.9423 74.0609 102.15C74.0609 106.699 71.8332 109.401 66.9321 109.401C60.5458 109.401 58.021 106.139 58.318 95.0498C58.318 92.6441 33.961 91.8941 33.2184 95.0498C31.3274 121.923 48.0702 129.675 67.2291 129.675C85.7939 129.675 100.349 119.779 100.349 101.866C100.349 70.019 59.6547 70.8721 59.6547 55.091C59.6547 48.6932 64.4072 47.8402 67.2291 47.8402C70.1995 47.8402 75.5461 48.3637 75.1006 60.3062Z" fill="white"/>
</g>
</svg>
