<svg width="142" height="39" viewBox="0 0 142 39" fill="none" xmlns="http://www.w3.org/2000/svg">
<g clip-path="url(#clip0_817_174)">
<path d="M12.0068 30.8287C17.3025 30.8287 21.5955 26.5356 21.5955 21.2399C21.5955 15.9442 17.3025 11.6511 12.0068 11.6511C6.71101 11.6511 2.41797 15.9442 2.41797 21.2399C2.41797 26.5356 6.71101 30.8287 12.0068 30.8287Z" fill="white" stroke="black" stroke-width="1.1215" stroke-miterlimit="10"/>
<path d="M23.1589 18.6106H0.857383C0.634304 18.6106 0.420361 18.6992 0.26262 18.857C0.10488 19.0147 0.0162617 19.2286 0.0162617 19.4517V20.3097C0.00672897 20.511 0 20.7084 0 20.9097C0 27.5371 5.37252 32.9097 12 32.9097C18.5271 32.9097 23.8374 27.6981 23.9961 21.2085C23.9961 21.1839 24 21.1592 24 21.134V19.4517C24 19.2286 23.9114 19.0147 23.7536 18.857C23.5959 18.6992 23.382 18.6106 23.1589 18.6106Z" fill="black"/>
</g>
<path d="M49.125 23.5682V13.5455H53.9659V31H49.3182V27.8295H49.1364C48.7424 28.8523 48.0871 29.6742 47.1705 30.2955C46.2614 30.9167 45.1515 31.2273 43.8409 31.2273C42.6742 31.2273 41.6477 30.9621 40.7614 30.4318C39.875 29.9015 39.1818 29.1477 38.6818 28.1705C38.1894 27.1932 37.9394 26.0227 37.9318 24.6591V13.5455H42.7727V23.7955C42.7803 24.8258 43.0568 25.6402 43.6023 26.2386C44.1477 26.8371 44.8788 27.1364 45.7955 27.1364C46.3788 27.1364 46.9242 27.0038 47.4318 26.7386C47.9394 26.4659 48.3485 26.0644 48.6591 25.5341C48.9773 25.0038 49.1326 24.3485 49.125 23.5682ZM57.8381 31V13.5455H62.4517V16.625H62.6562C63.0199 15.6023 63.6259 14.7955 64.4744 14.2045C65.3229 13.6136 66.3381 13.3182 67.5199 13.3182C68.7169 13.3182 69.7358 13.6174 70.5767 14.2159C71.4176 14.8068 71.9782 15.6098 72.2585 16.625H72.4403C72.7964 15.625 73.4403 14.8258 74.3722 14.2273C75.3116 13.6212 76.4214 13.3182 77.7017 13.3182C79.3305 13.3182 80.6525 13.8371 81.6676 14.875C82.6903 15.9053 83.2017 17.3674 83.2017 19.2614V31H78.3722V20.2159C78.3722 19.2462 78.1146 18.5189 77.5994 18.0341C77.0843 17.5492 76.4403 17.3068 75.6676 17.3068C74.7888 17.3068 74.1032 17.5871 73.6108 18.1477C73.1184 18.7008 72.8722 19.4318 72.8722 20.3409V31H68.179V20.1136C68.179 19.2576 67.9328 18.5758 67.4403 18.0682C66.9555 17.5606 66.3153 17.3068 65.5199 17.3068C64.982 17.3068 64.4972 17.4432 64.0653 17.7159C63.6411 17.9811 63.304 18.3561 63.054 18.8409C62.804 19.3182 62.679 19.8788 62.679 20.5227V31H57.8381ZM92.0028 31.3295C90.8892 31.3295 89.8968 31.1364 89.0256 30.75C88.1544 30.3561 87.465 29.7765 86.9574 29.0114C86.4574 28.2386 86.2074 27.2765 86.2074 26.125C86.2074 25.1553 86.3854 24.3409 86.7415 23.6818C87.0975 23.0227 87.5824 22.4924 88.196 22.0909C88.8097 21.6894 89.5066 21.3864 90.2869 21.1818C91.0748 20.9773 91.9006 20.8333 92.7642 20.75C93.7794 20.6439 94.5975 20.5455 95.2188 20.4545C95.84 20.3561 96.2907 20.2121 96.571 20.0227C96.8513 19.8333 96.9915 19.553 96.9915 19.1818V19.1136C96.9915 18.3939 96.7642 17.8371 96.3097 17.4432C95.8627 17.0492 95.2263 16.8523 94.4006 16.8523C93.5294 16.8523 92.8362 17.0455 92.321 17.4318C91.8059 17.8106 91.465 18.2879 91.2983 18.8636L86.821 18.5C87.0483 17.4394 87.4953 16.5227 88.1619 15.75C88.8286 14.9697 89.6884 14.3712 90.7415 13.9545C91.8021 13.5303 93.0294 13.3182 94.4233 13.3182C95.393 13.3182 96.321 13.4318 97.2074 13.6591C98.1013 13.8864 98.893 14.2386 99.5824 14.7159C100.279 15.1932 100.829 15.8068 101.23 16.5568C101.632 17.2992 101.832 18.1894 101.832 19.2273V31H97.2415V28.5795H97.1051C96.8248 29.125 96.4498 29.6061 95.9801 30.0227C95.5104 30.4318 94.946 30.7538 94.2869 30.9886C93.6278 31.2159 92.8665 31.3295 92.0028 31.3295ZM93.3892 27.9886C94.1013 27.9886 94.7301 27.8485 95.2756 27.5682C95.821 27.2803 96.2491 26.8939 96.5597 26.4091C96.8703 25.9242 97.0256 25.375 97.0256 24.7614V22.9091C96.8741 23.0076 96.6657 23.0985 96.4006 23.1818C96.143 23.2576 95.8513 23.3295 95.5256 23.3977C95.1998 23.4583 94.8741 23.5152 94.5483 23.5682C94.2225 23.6136 93.9271 23.6553 93.6619 23.6932C93.0938 23.7765 92.5975 23.9091 92.1733 24.0909C91.7491 24.2727 91.4195 24.5189 91.1847 24.8295C90.9498 25.1326 90.8324 25.5114 90.8324 25.9659C90.8324 26.625 91.071 27.1288 91.5483 27.4773C92.0331 27.8182 92.6468 27.9886 93.3892 27.9886ZM105.588 31V13.5455H110.202V16.625H110.406C110.77 15.6023 111.376 14.7955 112.224 14.2045C113.073 13.6136 114.088 13.3182 115.27 13.3182C116.467 13.3182 117.486 13.6174 118.327 14.2159C119.168 14.8068 119.728 15.6098 120.009 16.625H120.19C120.546 15.625 121.19 14.8258 122.122 14.2273C123.062 13.6212 124.171 13.3182 125.452 13.3182C127.08 13.3182 128.402 13.8371 129.418 14.875C130.44 15.9053 130.952 17.3674 130.952 19.2614V31H126.122V20.2159C126.122 19.2462 125.865 18.5189 125.349 18.0341C124.834 17.5492 124.19 17.3068 123.418 17.3068C122.539 17.3068 121.853 17.5871 121.361 18.1477C120.868 18.7008 120.622 19.4318 120.622 20.3409V31H115.929V20.1136C115.929 19.2576 115.683 18.5758 115.19 18.0682C114.705 17.5606 114.065 17.3068 113.27 17.3068C112.732 17.3068 112.247 17.4432 111.815 17.7159C111.391 17.9811 111.054 18.3561 110.804 18.8409C110.554 19.3182 110.429 19.8788 110.429 20.5227V31H105.588ZM134.776 31V13.5455H139.616V31H134.776ZM137.207 11.2955C136.488 11.2955 135.87 11.0568 135.355 10.5795C134.848 10.0947 134.594 9.51515 134.594 8.84091C134.594 8.17424 134.848 7.60227 135.355 7.125C135.87 6.64015 136.488 6.39773 137.207 6.39773C137.927 6.39773 138.541 6.64015 139.048 7.125C139.563 7.60227 139.821 8.17424 139.821 8.84091C139.821 9.51515 139.563 10.0947 139.048 10.5795C138.541 11.0568 137.927 11.2955 137.207 11.2955Z" fill="black"/>
<defs>
<clipPath id="clip0_817_174">
<rect width="24" height="24" fill="white" transform="translate(0 10)"/>
</clipPath>
</defs>
</svg>
